<?xml version="1.0" encoding="UTF-8" standalone="no"?>
<svg
   xmlns:dc="http://purl.org/dc/elements/1.1/"
   xmlns:cc="http://creativecommons.org/ns#"
   xmlns:rdf="http://www.w3.org/1999/02/22-rdf-syntax-ns#"
   xmlns:svg="http://www.w3.org/2000/svg"
   xmlns="http://www.w3.org/2000/svg"
   xmlns:sodipodi="http://sodipodi.sourceforge.net/DTD/sodipodi-0.dtd"
   xmlns:inkscape="http://www.inkscape.org/namespaces/inkscape"
   width="48"
   height="48"
   viewBox="0 0 48 48"
   fill="none"
   version="1.1"
   id="svg4"
   sodipodi:docname="bee_green.svg"
   inkscape:version="1.0.1 (3bc2e813f5, 2020-09-07)">
  <metadata
     id="metadata10">
    <rdf:RDF>
      <cc:Work
         rdf:about="">
        <dc:format>image/svg+xml</dc:format>
        <dc:type
           rdf:resource="http://purl.org/dc/dcmitype/StillImage" />
        <dc:title />
      </cc:Work>
    </rdf:RDF>
  </metadata>
  <defs
     id="defs8">
    <rect
       x="3.5678048"
       y="35.232073"
       width="60.990616"
       height="34.958743"
       id="rect837" />
  </defs>
  <sodipodi:namedview
     pagecolor="#ffffff"
     bordercolor="#666666"
     borderopacity="1"
     objecttolerance="10"
     gridtolerance="10"
     guidetolerance="10"
     inkscape:pageopacity="0"
     inkscape:pageshadow="2"
     inkscape:window-width="3840"
     inkscape:window-height="2066"
     id="namedview6"
     showgrid="false"
     showguides="true"
     inkscape:guide-bbox="true"
     inkscape:zoom="18.379083"
     inkscape:cx="-29.509969"
     inkscape:cy="30.617473"
     inkscape:window-x="-11"
     inkscape:window-y="-11"
     inkscape:window-maximized="1"
     inkscape:current-layer="svg4"
     inkscape:document-rotation="0"
     inkscape:snap-others="true"
     inkscape:snap-object-midpoints="true" />
  <path
     fill-rule="evenodd"
     clip-rule="evenodd"
     d="m 27.801099,12.255279 c 0,-0.947777 -0.876414,-1.711654 -1.787497,-2.249812 0.16214,-0.197663 0.335589,-0.3809248 0.520451,-0.5424254 0.57144,-0.4772498 1.267046,-0.7158737 1.987507,-0.9068161 0.04971,0 0.09942,-0.023903 0.14902,-0.047786 C 28.968728,8.3413912 29.068146,7.959614 28.894271,7.6732 28.72029,7.3867866 28.322831,7.2914226 28.024683,7.4584705 27.627225,7.6493059 27.279368,7.8880374 26.931512,8.1505564 26.583762,8.4130745 26.285615,8.7232759 26.037176,9.0812666 25.889436,9.3178642 25.752469,9.5544627 25.640678,9.7978868 25.373358,9.6573998 25.113079,9.5370742 24.881388,9.4380841 24.320295,9.1982851 23.683998,9.2098061 23.129732,9.4639981 22.86732,9.5843233 22.567466,9.7327033 22.262277,9.9057248 22.148566,9.6172891 22.002746,9.335462 21.813723,9.0812635 21.565285,8.7232738 21.267138,8.4130723 20.919281,8.1505533 20.571531,7.8880343 20.19882,7.6731978 19.826215,7.4584674 c -0.02485,-0.011945 -0.0497,-0.017922 -0.07456,-0.023899 -0.02486,-0.00602 -0.0497,-0.011945 -0.07457,-0.023899 -0.347749,-0.095468 -0.670751,0.095468 -0.770169,0.4295668 -0.09931,0.3342014 0.09942,0.6444028 0.447274,0.7398745 0.720461,0.1909414 1.416066,0.4295672 1.987508,0.9068151 0.208757,0.1823029 0.403005,0.3925534 0.582747,0.6198702 -0.877587,0.549358 -1.700773,1.292753 -1.700773,2.148474 0,1.010394 0.561093,1.911344 1.43196,2.497397 -0.408339,0.223904 -0.774757,0.50605 -1.089438,0.836626 -0.02271,-0.0063 -0.04576,-0.01195 -0.06923,-0.01675 C 16.174097,14.641739 9.8389702,13.54398 6.0874868,12.971259 4.7459088,12.780317 3.9509059,13.54398 3.776999,14.379219 c -0.1987507,0.954606 0.2732823,2.171729 1.2670465,3.293382 1.0682852,1.169442 2.5589156,2.052471 4.1986302,2.434249 0.2790533,0.07062 0.568987,0.128647 0.8672413,0.175368 -0.05302,0.192756 -0.0767,0.390951 -0.07222,0.588402 0.02486,1.742055 1.863235,2.935391 3.478137,2.935391 2.68546,0 4.861243,-1.606582 6.259603,-3.006542 0.169501,0.357244 0.383804,0.686539 0.636936,0.981807 -0.702859,1.074824 -1.083144,2.484703 -1.083144,4.077099 0,3.412747 1.788778,8.185773 4.695582,8.185773 2.906698,0 4.695474,-4.773026 4.645765,-8.185773 0,-1.579595 -0.372283,-2.97262 -1.06469,-4.041044 0.253238,-0.288974 0.468823,-0.611336 0.640989,-0.961432 1.399854,1.394306 3.556863,2.950112 6.212348,2.950112 1.614903,0 3.453283,-1.217124 3.478138,-2.935391 0,-0.196384 -0.02699,-0.393619 -0.08235,-0.585414 0.308388,-0.04725 0.609843,-0.106246 0.90223,-0.178249 1.639756,-0.381885 3.130387,-1.264806 4.198597,-2.434248 0.993754,-1.097759 1.465777,-2.338778 1.267047,-3.293382 -0.173875,-0.859135 -0.968899,-1.622797 -2.310402,-1.408068 -3.751537,0.572827 -10.061809,1.670587 -14.409534,2.601296 -0.0099,0.0022 -0.01963,0.0043 -0.02933,0.0066 -0.314362,-0.32823 -0.679925,-0.608243 -1.086877,-0.830439 0.871293,-0.590108 1.428546,-1.494791 1.414359,-2.493451 z m -1.745362,10.700666 c -0.607922,0.271159 -1.294141,0.4205 -2.030922,0.4205 -0.757049,0 -1.460657,-0.157661 -2.080739,-0.443008 -0.397566,0.675764 -0.626697,1.565087 -0.669578,2.573775 l 0.09206,0.0528 c 0.27884,0.160007 0.551066,0.316174 0.844628,0.441619 0.248331,0.140274 0.505302,0.2558 0.77081,0.351484 0.148805,0.05366 0.141445,0.265933 -0.01546,0.290467 -0.304334,0.04747 -0.612189,0.07392 -0.929217,0.07392 -0.244812,0.0112 -0.489623,0.0066 -0.731769,-0.0014 0.07041,0.799505 0.233398,1.583969 0.454528,2.297922 0.174623,0.100378 0.347644,0.195423 0.525679,0.280867 0.238305,0.12886 0.485569,0.240438 0.741795,0.334949 0.145394,0.05355 0.139101,0.257186 -0.01408,0.283746 -0.290254,0.05025 -0.588189,0.08267 -0.876841,0.09728 l -0.01164,5.33e-4 c 0.551707,1.289768 1.27494,2.171303 1.874969,2.171303 0.597468,0 1.317076,-0.874068 1.867927,-2.154874 -0.276918,-0.02794 -0.546052,-0.06378 -0.807396,-0.111686 -0.152969,-0.02805 -0.158835,-0.232544 -0.01302,-0.285028 0.256012,-0.09206 0.503063,-0.197875 0.741261,-0.312333 0.144007,-0.06912 0.284707,-0.144541 0.425835,-0.224011 0.233717,-0.734648 0.406419,-1.54738 0.479595,-2.376326 -0.217717,0.0065 -0.437353,0.009 -0.656992,-9.36e-4 -0.3134,0 -0.626908,-0.02581 -0.929643,-0.07231 -0.156914,-0.0241 -0.162247,-0.233292 -0.01248,-0.284388 0.276919,-0.09462 0.539438,-0.206409 0.793104,-0.335376 0.269452,-0.137073 0.539011,-0.283853 0.814972,-0.434153 l 0.02474,-0.01344 c -0.03574,-1.026083 -0.268598,-1.925537 -0.672136,-2.62189 z M 24.468462,11.111332 c -0.285667,-0.104431 -0.599708,-0.09825 -0.882175,0.01408 -0.550746,0.219104 -1.424814,0.64003 -1.424814,1.105973 0,0.680458 0.844733,1.336489 1.863342,1.336489 0.993752,0 1.863235,-0.535493 1.863235,-1.336489 0.01451,-0.513945 -0.863935,-0.916951 -1.419588,-1.120053 z m -0.443647,4.938473 c -1.614904,0 -2.732823,1.121759 -2.732823,2.720661 0,1.59901 1.117919,2.720663 2.732823,2.720663 1.614795,0 2.732822,-1.121653 2.732822,-2.720663 0,-1.598902 -1.118027,-2.720661 -2.732822,-2.720661 z m 14.210698,2.05247 c -2.981261,0.692085 -7.428299,-0.190941 -9.515223,-0.668192 4.074432,-0.835346 9.81337,-1.837633 13.390924,-2.386565 -0.198836,0.76377 -1.440921,2.482037 -3.875701,3.054757 z m -7.701591,1.980787 c 1.043462,0.859134 2.40982,1.646691 3.925305,1.646691 0.57144,0 0.968899,-0.286412 1.167736,-0.548931 0.14902,-0.190838 0.14902,-0.334097 0.14902,-0.381779 -0.02486,-0.0239 -0.19873,-0.143155 -0.670752,-0.167048 -1.416174,-0.0239 -2.906804,-0.214836 -4.571309,-0.548933 z M 5.8638922,15.047518 c 0.1739069,0.763663 1.4160989,2.48193 3.8756608,3.054651 2.956407,0.692085 7.428298,-0.190835 9.515223,-0.668192 -4.074432,-0.83524 -9.8133712,-1.837633 -13.3908838,-2.386459 z m 7.0060488,5.58437 c 1.416067,-0.04768 2.906697,-0.214729 4.571202,-0.548826 -1.043356,0.882922 -2.40982,1.646691 -3.925305,1.646691 -0.546586,0 -0.968899,-0.286412 -1.167628,-0.548931 -0.149127,-0.214838 -0.149127,-0.357991 -0.149127,-0.381886 0.02486,-0.04768 0.198836,-0.143153 0.670858,-0.167048 z"
     fill="#000000"
     id="path2"
     style="fill:#000000;fill-opacity:1;stroke:#00af00;stroke-width:0.5;stroke-miterlimit:4;stroke-dasharray:none;stroke-opacity:1" />
  <text
     xml:space="preserve"
     id="text835"
     style="font-style:normal;font-variant:normal;font-weight:900;font-stretch:normal;font-size:7.55906px;line-height:1.25;font-family:Metropolis;-inkscape-font-specification:'Metropolis, Heavy';font-variant-ligatures:normal;font-variant-caps:normal;font-variant-numeric:normal;font-variant-east-asian:normal;letter-spacing:0.75px;white-space:pre;shape-inside:url(#rect837);fill:#000000;fill-opacity:1;"
     transform="translate(11.990306,-1.2737702)"><tspan
       x="3.5683594"
       y="42.186757"><tspan
         style="font-style:normal;font-variant:normal;font-weight:900;font-stretch:normal;font-size:7.55906px;font-family:Metropolis;-inkscape-font-specification:'Metropolis, Heavy';font-variant-ligatures:normal;font-variant-caps:normal;font-variant-numeric:normal;font-variant-east-asian:normal;fill:#000000;fill-opacity:1">BEE</tspan></tspan></text>
</svg>
