<?xml version="1.0" encoding="UTF-8" standalone="no"?>
<svg
   xmlns:dc="http://purl.org/dc/elements/1.1/"
   xmlns:cc="http://creativecommons.org/ns#"
   xmlns:rdf="http://www.w3.org/1999/02/22-rdf-syntax-ns#"
   xmlns:svg="http://www.w3.org/2000/svg"
   xmlns="http://www.w3.org/2000/svg"
   xmlns:sodipodi="http://sodipodi.sourceforge.net/DTD/sodipodi-0.dtd"
   xmlns:inkscape="http://www.inkscape.org/namespaces/inkscape"
   width="48"
   height="48"
   viewBox="0 0 48 48"
   fill="none"
   version="1.1"
   id="svg6"
   sodipodi:docname="goshimmer_logo.svg"
   inkscape:version="1.0.1 (3bc2e813f5, 2020-09-07)">
  <metadata
     id="metadata12">
    <rdf:RDF>
      <cc:Work
         rdf:about="">
        <dc:format>image/svg+xml</dc:format>
        <dc:type
           rdf:resource="http://purl.org/dc/dcmitype/StillImage" />
      </cc:Work>
    </rdf:RDF>
  </metadata>
  <defs
     id="defs10">
    <rect
       x="3.3054662"
       y="32.372582"
       width="55.268928"
       height="9.007354"
       id="rect839" />
  </defs>
  <sodipodi:namedview
     pagecolor="#ffffff"
     bordercolor="#666666"
     borderopacity="1"
     objecttolerance="10"
     gridtolerance="10"
     guidetolerance="10"
     inkscape:pageopacity="0"
     inkscape:pageshadow="2"
     inkscape:window-width="2880"
     inkscape:window-height="1526"
     id="namedview8"
     showgrid="false"
     inkscape:zoom="11.211498"
     inkscape:cx="36.153132"
     inkscape:cy="44.363106"
     inkscape:window-x="5749"
     inkscape:window-y="799"
     inkscape:window-maximized="1"
     inkscape:current-layer="svg6"
     inkscape:document-rotation="0" />
  <path
     fill-rule="evenodd"
     clip-rule="evenodd"
     d="m 28.381606,23.657787 c 0.9446,-0.5054 1.5292,-1.4562 1.5292,-2.4871 v -3.0824 c 0,-1.0309 -0.5846,-1.9817 -1.5292,-2.4871 l -3,-1.6052 c -0.9132,-0.4887 -2.0284,-0.4887 -2.9416,0 l -3,1.6052 c -0.9446,0.5054 -1.5292,1.4562 -1.5292,2.4871 v 3.0824 c 0,1.0309 0.5846,1.9817 1.5292,2.4871 l 3,1.6052 c 0.9132,0.4887 2.0284,0.4887 2.9416,0 z m -0.4708,-5.5695 v 3.0824 c 0,0.2578 -0.1466,0.5492 -0.4727,0.7237 l -3,1.6052 c -0.3238,0.1732 -0.7308,0.1732 -1.0546,0 l -3,-1.6052 c -0.3261,-0.1745 -0.4727,-0.4659 -0.4727,-0.7237 v -3.0824 c 0,-0.2578 0.1466,-0.5492 0.4727,-0.7237 l 3,-1.6052 c 0.3238,-0.1732 0.7308,-0.1732 1.0546,0 l 3,1.6052 c 0.3261,0.1745 0.4727,0.4659 0.4727,0.7237 z"
     fill="#000000"
     id="path2" />
  <path
     fill-rule="evenodd"
     clip-rule="evenodd"
     d="m 35.178306,28.781887 c 1.3824,-0.8043 2.2325,-2.2804 2.2325,-3.8766 v -10.5516 c 0,-1.5962 -0.8501,-3.0723 -2.2325,-3.8766 l -9,-5.2362001 c -1.4012,-0.8152 -3.1338,-0.8152 -4.535,0 l -9,5.2362001 c -1.3824,0.8043 -2.2325,2.2804 -2.2325,3.8766 v 10.5516 c 0,1.5962 0.8501,3.0723 2.2325,3.8766 l 9,5.2362 c 1.4012,0.8152 3.1338,0.8152 4.535,0 z m 0.2325,-14.4282 v 10.5516 c 0,0.8823 -0.4698,1.7008 -1.2383,2.1479 l -9,5.2362 c -0.7794,0.4535 -1.744,0.4535 -2.5234,0 l -9,-5.2362 c -0.7685,-0.4471 -1.2383,-1.2656 -1.2383,-2.1479 v -10.5516 c 0,-0.8823 0.4698,-1.7008 1.2383,-2.1479 l 9,-5.2362001 c 0.7794,-0.4535 1.744,-0.4535 2.5234,0 l 9,5.2362001 c 0.7685,0.4471 1.2383,1.2656 1.2383,2.1479 z"
     fill="#000000"
     id="path4" />
  <text
     xml:space="preserve"
     id="text837"
     style="font-style:normal;font-variant:normal;font-weight:900;font-stretch:normal;font-size:7.94435px;line-height:1.25;font-family:Metropolis;-inkscape-font-specification:'Metropolis, Heavy';font-variant-ligatures:normal;font-variant-caps:normal;font-variant-numeric:normal;font-variant-east-asian:normal;letter-spacing:0px;white-space:pre;shape-inside:url(#rect839);fill:#000000;fill-opacity:1;"
     transform="matrix(0.90535464,0,0,1,-1.7688122,2.3194948)"><tspan
       x="3.3046875"
       y="39.681849"><tspan
         style="font-style:normal;font-variant:normal;font-weight:900;font-stretch:normal;font-size:7.94435px;font-family:Metropolis;-inkscape-font-specification:'Metropolis, Heavy';font-variant-ligatures:normal;font-variant-caps:normal;font-variant-numeric:normal;font-variant-east-asian:normal">GOSHIMMER</tspan></tspan></text>
</svg>
