<?xml version="1.0" encoding="UTF-8" standalone="no"?>
<svg
   xmlns:dc="http://purl.org/dc/elements/1.1/"
   xmlns:cc="http://creativecommons.org/ns#"
   xmlns:rdf="http://www.w3.org/1999/02/22-rdf-syntax-ns#"
   xmlns:svg="http://www.w3.org/2000/svg"
   xmlns="http://www.w3.org/2000/svg"
   xmlns:sodipodi="http://sodipodi.sourceforge.net/DTD/sodipodi-0.dtd"
   xmlns:inkscape="http://www.inkscape.org/namespaces/inkscape"
   width="48"
   height="48"
   viewBox="0 0 48 48"
   fill="none"
   version="1.1"
   id="svg4"
   sodipodi:docname="hornet_logo.svg"
   inkscape:version="1.0.1 (3bc2e813f5, 2020-09-07)">
  <metadata
     id="metadata10">
    <rdf:RDF>
      <cc:Work
         rdf:about="">
        <dc:format>image/svg+xml</dc:format>
        <dc:type
           rdf:resource="http://purl.org/dc/dcmitype/StillImage" />
      </cc:Work>
    </rdf:RDF>
  </metadata>
  <defs
     id="defs8">
    <rect
       x="5.0827383"
       y="23.521577"
       width="43.724081"
       height="15.481559"
       id="rect837" />
  </defs>
  <sodipodi:namedview
     pagecolor="#ffffff"
     bordercolor="#666666"
     borderopacity="1"
     objecttolerance="10"
     gridtolerance="10"
     guidetolerance="10"
     inkscape:pageopacity="0"
     inkscape:pageshadow="2"
     inkscape:window-width="2880"
     inkscape:window-height="1526"
     id="namedview6"
     showgrid="false"
     inkscape:snap-object-midpoints="true"
     inkscape:zoom="15.855453"
     inkscape:cx="31.304087"
     inkscape:cy="35.152917"
     inkscape:window-x="5749"
     inkscape:window-y="799"
     inkscape:window-maximized="1"
     inkscape:current-layer="svg4"
     inkscape:document-rotation="0" />
  <path
     d="m 32.808591,16.549077 c 2.179462,-1.411708 3.577684,-3.690694 4.071152,-6.5747115 0.349531,-2.1377477 0.08228,-3.8519919 0.08228,-3.9326692 C 36.920882,5.7391804 36.715289,5.4971676 36.427418,5.3761613 36.139541,5.2551549 35.810532,5.3156579 35.584415,5.4971676 L 22.363409,15.520523 c 0.226212,-0.887413 0.06176,-1.79496 -0.472849,-2.520998 -0.863616,-1.129328 -2.323496,-1.33107 -3.474887,-0.887317 l -0.164458,-0.10087 c -0.843093,-0.544528 -1.72723,-0.665535 -2.611366,-0.342883 -1.706519,0.625264 -3.04308,2.84365 -3.618727,4.759616 -0.04114,0.161373 0.04114,0.342884 0.205595,0.403386 0.04114,0.02014 0.08228,0.02014 0.143936,0.02014 0.123319,0 0.246733,-0.06051 0.308393,-0.181509 0.904754,-1.794961 2.405676,-3.347812 3.495408,-3.610057 0.30849,-0.08064 0.575744,-0.04026 0.801956,0.100871 l 0.06166,0.04037 c -0.575743,0.705805 -0.925275,1.613353 -1.048593,2.682275 -0.123415,1.109193 0.04105,2.319257 0.41119,3.146166 0.143936,0.322652 0.45233,0.504161 0.80186,0.504161 0.08229,0 0.185074,-0.02014 0.267351,-0.04026 0.80186,-0.262244 2.097187,-0.766405 3.166397,-1.552946 -0.143935,0.302516 -0.226115,0.625168 -0.246733,0.968052 -0.06166,0.78654 0.185074,1.552947 0.699061,2.157978 0.514085,0.605033 1.254287,0.988185 2.056146,1.04869 0.08229,0 0.185074,0.02014 0.267351,0.02014 0.02052,0 0.06166,0 0.08218,0 -0.7402,1.028555 -1.007455,2.480631 -0.308392,4.073945 1.521539,3.42845 -0.39067,5.707435 -1.747657,6.514113 -0.308488,0.181509 -0.472946,0.544528 -0.370148,0.887412 0.102797,0.342884 0.411191,0.584897 0.78134,0.605032 0.123317,0 0.246733,0 0.370052,0 4.893628,0 7.052571,-2.359624 7.916186,-3.791565 1.377604,-2.299121 1.315848,-5.263777 -0.164553,-7.724176 -0.760721,-1.270567 -2.241123,-2.319354 -3.906598,-2.097475 0.205595,-0.36302 0.328914,-0.746174 0.370052,-1.169697 0.04114,-0.46389 -0.02052,-0.907548 -0.205595,-1.33107 0.390668,0.04026 0.781338,0.06051 1.192529,0.06051 1.665476,-0.06051 3.577684,-0.423523 5.387096,-1.61345 z m -15.050842,0.988186 c -0.08229,-0.443657 -0.123414,-0.96805 -0.06176,-1.512579 0.08228,-0.705806 0.329011,-1.653721 1.11035,-2.198251 0.185074,-0.141142 0.472946,-0.221876 0.760722,-0.221876 0.329009,0 0.678541,0.121006 0.904753,0.423522 0.411191,0.56476 0.226116,1.310935 -0.143936,1.794959 -0.493468,0.625168 -1.398221,1.250432 -2.570133,1.714225 z m 5.510415,2.84365 c -0.349532,-0.02014 -0.658021,-0.181509 -0.884138,-0.443658 -0.226212,-0.262147 -0.329009,-0.584896 -0.308391,-0.927683 0.02052,-0.342883 0.184976,-0.6454 0.452328,-0.867276 0.226116,-0.201646 0.534605,-0.302516 0.82238,-0.302516 0.04114,0 0.08228,0 0.102892,0 0.349533,0.02023 0.657925,0.181509 0.884137,0.443754 0.226117,0.262148 0.328914,0.584799 0.308394,0.927682 -0.02061,0.342884 -0.185074,0.645401 -0.452329,0.867181 -0.246734,0.221877 -0.575743,0.322748 -0.925274,0.302516 z m 3.248673,1.754593 c 0.534606,0 1.11035,0.221877 1.624337,0.786541 0.06166,0.06051 0.06166,0.141238 0.04114,0.201741 -0.308391,0.645303 -0.966411,1.431845 -1.603815,1.835231 -0.102796,0.06051 -0.143936,0.201645 -0.102796,0.302517 0.04114,0.121007 0.185074,0.181509 0.308392,0.161373 0.514084,-0.10087 1.254286,-0.38325 1.871166,-0.766405 0.06166,-0.04035 0.102798,-0.06051 0.164458,-0.100871 0.102796,-0.08064 0.267255,-0.02014 0.308393,0.100871 0.267351,0.746174 0.39067,1.512579 0.370149,2.258753 0,0.08074 -0.06176,0.161374 -0.143937,0.181509 -0.658019,0.221878 -1.439358,0.342884 -2.056145,0.242014 -0.143935,-0.02014 -0.287872,0.02023 -0.32901,0.161373 -0.06166,0.141142 0.02062,0.262149 0.143937,0.342884 0.452328,0.262149 1.130869,0.54453 1.850549,0.705807 0.123319,0.02023 0.205595,0.161374 0.143936,0.262245 -0.102797,0.262147 -0.226212,0.504161 -0.370149,0.746173 -0.226115,0.383155 -0.493467,0.726038 -0.801859,1.028554 -0.06166,0.06051 -0.164555,0.08064 -0.246734,0.04037 -0.32901,-0.161373 -0.637403,-0.363019 -0.863615,-0.544529 -0.08219,-0.08073 -0.205597,-0.08073 -0.287873,0 -0.08218,0.06051 -0.123318,0.201646 -0.06166,0.302517 0.102796,0.201645 0.287871,0.463793 0.493466,0.746174 0.06166,0.10087 0.04114,0.221876 -0.04114,0.28238 -0.657924,0.40329 -1.398125,0.705805 -2.241122,0.907547 -0.185075,0.04026 -0.30849,-0.141237 -0.226213,-0.302516 1.254285,-1.996605 1.13087,-4.517603 0.26735,-6.473841 -0.67854,-1.532811 0,-2.722643 0.925179,-3.166397 0.205692,-0.161278 0.514084,-0.242013 0.863616,-0.242013 z M 24.584108,16.004549 35.317065,7.8567534 c -0.02052,1.97647 -0.534606,5.3646486 -3.474887,7.2806156 -2.590654,1.673856 -5.551553,1.310837 -7.25807,0.86718 z"
     fill="#000000"
     id="path2"
     style="stroke-width:0.963427" />
  <text
     xml:space="preserve"
     id="text835"
     style="font-style:normal;font-variant:normal;font-weight:900;font-stretch:normal;font-size:7.55906px;line-height:1.25;font-family:Metropolis;-inkscape-font-specification:'Metropolis, Heavy';font-variant-ligatures:normal;font-variant-caps:normal;font-variant-numeric:normal;font-variant-east-asian:normal;white-space:pre;shape-inside:url(#rect837);fill:#000000;fill-opacity:1;"
     transform="translate(2.4725152,10.479701)"><tspan
       x="5.0820312"
       y="30.47582"><tspan>HORNET</tspan></tspan></text>
</svg>
