<svg id="Layer_1" data-name="Layer 1" xmlns="http://www.w3.org/2000/svg" viewBox="0 0 1476 630"><title>Powered by IOTA Black</title><path d="M633.35,250.78H612.16V436.59h21.19Z"/><path d="M701.57,343.53c0-52,43.63-96.15,94.94-96.15,51.61,0,94.62,43.77,94.62,96.15s-43.31,96.17-94.62,96.17C745.5,440,701.57,395.93,701.57,343.53Zm168.37,0c0-41.28-33.48-76.42-73.43-76.42s-73.72,35.14-73.72,76.42c0,41.63,33.78,76.73,73.72,76.73S869.94,385.16,869.94,343.53Z"/><path d="M999.88,270.81H937.52v-20h145.63v20h-62.38V436.59H999.58Z"/><path d="M1194.35,276.67,1124,436.59h-23l77.12-175.33a17.42,17.42,0,0,1,16-10.48,17.13,17.13,0,0,1,16,10.48l77.12,175.33h-23Z"/><path d="M407.07,233.94a17.24,17.24,0,1,0-17.3-17.25A17.27,17.27,0,0,0,407.07,233.94Z"/><path d="M426.51,477.45a17.24,17.24,0,1,0-17.29-17.24A17.26,17.26,0,0,0,426.51,477.45Z"/><path d="M412,277a14.47,14.47,0,1,0-14.5-14.47A14.49,14.49,0,0,0,412,277Z"/><path d="M450.59,282.58a14.47,14.47,0,1,0-14.51-14.47A14.48,14.48,0,0,0,450.59,282.58Z"/><path d="M407.07,313.67a12.32,12.32,0,1,0-12.35-12.31A12.32,12.32,0,0,0,407.07,313.67Z"/><path d="M445.64,318.9a12.31,12.31,0,1,0-12.35-12.31A12.33,12.33,0,0,0,445.64,318.9Z"/><path d="M476.5,330.91a12.32,12.32,0,1,0-12.34-12.31A12.32,12.32,0,0,0,476.5,330.91Z"/><path d="M434.22,348.45a10.77,10.77,0,1,0-10.8-10.77A10.79,10.79,0,0,0,434.22,348.45Z"/><path d="M395.64,343.22a10.78,10.78,0,1,0-10.79-10.77A10.79,10.79,0,0,0,395.64,343.22Z"/><path d="M465.39,360.47a10.78,10.78,0,1,0-10.8-10.79A10.8,10.8,0,0,0,465.39,360.47Z"/><path d="M418.79,370.93a9.24,9.24,0,1,0-9.26-9.23A9.25,9.25,0,0,0,418.79,370.93Z"/><path d="M450,382.63a9.24,9.24,0,1,0-9.25-9.24A9.26,9.26,0,0,0,450,382.63Z"/><path d="M380.52,365.39a9.24,9.24,0,1,0-9.26-9.24A9.25,9.25,0,0,0,380.52,365.39Z"/><path d="M401.82,386a7.7,7.7,0,1,0-7.72-7.7A7.71,7.71,0,0,0,401.82,386Z"/><path d="M415.08,407.26a6.78,6.78,0,1,0-6.78-6.78A6.78,6.78,0,0,0,415.08,407.26Z"/><path d="M398.73,411.57a5.55,5.55,0,1,0-5.55-5.54A5.56,5.56,0,0,0,398.73,411.57Z"/><path d="M384.22,395.55a6.77,6.77,0,1,0-6.79-6.77A6.77,6.77,0,0,0,384.22,395.55Z"/><path d="M363.24,380.79a7.7,7.7,0,1,0-7.72-7.7A7.71,7.71,0,0,0,363.24,380.79Z"/><path d="M362.93,322.9a7.7,7.7,0,1,0-7.72-7.7A7.71,7.71,0,0,0,362.93,322.9Z"/><path d="M366.32,295.81a6.77,6.77,0,1,0-6.79-6.77A6.78,6.78,0,0,0,366.32,295.81Z"/><path d="M373.73,273.65a5.55,5.55,0,1,0-5.55-5.54A5.56,5.56,0,0,0,373.73,273.65Z"/><path d="M360.76,263.19a6.78,6.78,0,1,0-6.78-6.78A6.78,6.78,0,0,0,360.76,263.19Z"/><path d="M432.68,397.71A7.7,7.7,0,1,0,425,390,7.71,7.71,0,0,0,432.68,397.71Z"/><path d="M343.18,254.26a7.7,7.7,0,1,0-7.73-7.7A7.71,7.71,0,0,0,343.18,254.26Z"/><path d="M348.42,286.89a7.7,7.7,0,1,0-7.72-7.7A7.71,7.71,0,0,0,348.42,286.89Z"/><path d="M339.78,318a9.24,9.24,0,1,0-9.25-9.24A9.25,9.25,0,0,0,339.78,318Z"/><path d="M311.69,318a10.78,10.78,0,1,0-10.8-10.78A10.79,10.79,0,0,0,311.69,318Z"/><path d="M279,325.37a12.32,12.32,0,1,0-12.35-12.31A12.34,12.34,0,0,0,279,325.37Z"/><path d="M243.17,342.91a14.47,14.47,0,1,0-14.5-14.46A14.49,14.49,0,0,0,243.17,342.91Z"/><path d="M206.14,372.47a17.24,17.24,0,1,0-17.29-17.24A17.26,17.26,0,0,0,206.14,372.47Z"/><path d="M228.67,306.9a14.47,14.47,0,1,0-14.51-14.47A14.49,14.49,0,0,0,228.67,306.9Z"/><path d="M264.46,289.35A12.32,12.32,0,1,0,252.13,277,12.33,12.33,0,0,0,264.46,289.35Z"/><path d="M259.22,256.72a12.32,12.32,0,1,0-12.34-12.32A12.34,12.34,0,0,0,259.22,256.72Z"/><path d="M291.94,249.33a10.78,10.78,0,1,0-10.81-10.78A10.79,10.79,0,0,0,291.94,249.33Z"/><path d="M320,249.33a9.24,9.24,0,1,0-9.25-9.24A9.26,9.26,0,0,0,320,249.33Z"/><path d="M325.27,282a9.23,9.23,0,1,0-9.26-9.23A9.25,9.25,0,0,0,325.27,282Z"/><path d="M297.19,282.27a10.78,10.78,0,1,0-10.81-10.78A10.8,10.8,0,0,0,297.19,282.27Z"/><path d="M266.63,364.16a5.55,5.55,0,1,0-5.56-5.55A5.56,5.56,0,0,0,266.63,364.16Z"/><path d="M288.86,361.39a6.78,6.78,0,1,0-6.8-6.78A6.79,6.79,0,0,0,288.86,361.39Z"/><path d="M313.23,352.15a7.7,7.7,0,1,0-7.71-7.69A7.7,7.7,0,0,0,313.23,352.15Z"/><path d="M319.1,376.78a9.24,9.24,0,1,0-9.26-9.24A9.24,9.24,0,0,0,319.1,376.78Z"/><path d="M289.47,382.62a7.7,7.7,0,1,0-7.71-7.7A7.71,7.71,0,0,0,289.47,382.62Z"/><path d="M263.23,382.32a6.78,6.78,0,1,0-6.78-6.77A6.79,6.79,0,0,0,263.23,382.32Z"/><path d="M263.54,403.57a7.7,7.7,0,1,0-7.72-7.7A7.71,7.71,0,0,0,263.54,403.57Z"/><path d="M295,407.56a9.24,9.24,0,1,0-9.25-9.23A9.25,9.25,0,0,0,295,407.56Z"/><path d="M331.76,403.57A10.78,10.78,0,1,0,321,392.78,10.8,10.8,0,0,0,331.76,403.57Z"/><path d="M353.36,430.35A12.32,12.32,0,1,0,341,418,12.34,12.34,0,0,0,353.36,430.35Z"/><path d="M308,434a10.78,10.78,0,1,0-10.8-10.78A10.8,10.8,0,0,0,308,434Z"/><path d="M282.37,455a10.78,10.78,0,1,0-10.8-10.77A10.78,10.78,0,0,0,282.37,455Z"/><path d="M303.67,482.06a12.31,12.31,0,1,0-12.35-12.31A12.32,12.32,0,0,0,303.67,482.06Z"/><path d="M360.46,487A14.47,14.47,0,1,0,346,472.53,14.49,14.49,0,0,0,360.46,487Z"/><path d="M329.29,461.13a12.32,12.32,0,1,0-12.35-12.32A12.34,12.34,0,0,0,329.29,461.13Z"/><path d="M384.22,456.21a14.48,14.48,0,1,0-14.5-14.47A14.49,14.49,0,0,0,384.22,456.21Z"/><path d="M269.41,428.5a9.24,9.24,0,1,0-9.27-9.23A9.25,9.25,0,0,0,269.41,428.5Z"/><path d="M612.16,181.44V130.5h22.38c10.69,0,16.64,7.34,16.64,15.95s-6,16-16.64,16H621.11v19h-9Zm29.87-35c0-4.88-3.67-8.08-8.7-8.08H621.11v16.19h12.22C638.36,154.57,642,151.37,642,146.48Z"/><path d="M658.75,156c0-15.19,10.78-26.35,26-26.35s26.06,11.16,26.06,26.35-10.78,26.34-26.06,26.34S658.75,171.23,658.75,156Zm42.93,0c0-10.54-6.63-18.42-16.88-18.42s-16.87,7.88-16.87,18.42,6.57,18.41,16.87,18.41S701.68,166.49,701.68,156Z"/><path d="M759.35,181.44l-9.92-37.56-9.86,37.56H730L715.45,130.5h10l9.92,39.25L745.9,130.5H753l10.54,39.25,9.86-39.25h10l-14.5,50.94Z"/><path d="M791.84,181.44V130.5h34.91v7.87h-26v13.21h25.42v7.87H800.79v14.12h26v7.87Z"/><path d="M867.45,181.44l-11.31-19h-8.85v19h-8.94V130.5h22.38c10.1,0,16.64,6.57,16.64,15.95,0,9.09-6,14-12.08,15l12.46,20Zm.77-35c0-4.88-3.67-8.08-8.7-8.08H847.29v16.19h12.23C864.55,154.57,868.22,151.37,868.22,146.48Z"/><path d="M888.76,181.44V130.5h34.9v7.87h-26v13.21h25.43v7.87H897.7v14.12h26v7.87Z"/><path d="M935.3,181.44V130.5h18.94c15.9,0,26.64,10.54,26.64,25.52s-10.77,25.42-26.64,25.42ZM971.74,156c0-9.86-6.1-17.65-17.5-17.65h-10v35.2h10C965.31,173.6,971.74,165.64,971.74,156Z"/><path d="M1014.07,181.44V130.5h25c9.32,0,14.5,5.8,14.5,13,0,6.43-4.11,10.69-8.85,11.7,5.42.83,9.86,6.24,9.86,12.52,0,7.87-5.27,13.73-14.83,13.73ZM1044.44,145c0-3.82-2.61-6.63-7.16-6.63H1023v13.21h14.27C1041.86,151.61,1044.44,148.85,1044.44,145Zm1,21.46c0-3.81-2.66-7-7.78-7H1023V173.6h14.65C1042.54,173.6,1045.44,170.91,1045.44,166.49Z"/><path d="M1078.15,181.44V160.28l-19.77-29.78h10.24l14.06,21.85,13.91-21.85h10.25l-19.72,29.78v21.16Z"/></svg>