<?xml version="1.0" encoding="UTF-8" standalone="no"?>
<svg
   xmlns:dc="http://purl.org/dc/elements/1.1/"
   xmlns:cc="http://creativecommons.org/ns#"
   xmlns:rdf="http://www.w3.org/1999/02/22-rdf-syntax-ns#"
   xmlns:svg="http://www.w3.org/2000/svg"
   xmlns="http://www.w3.org/2000/svg"
   xmlns:sodipodi="http://sodipodi.sourceforge.net/DTD/sodipodi-0.dtd"
   xmlns:inkscape="http://www.inkscape.org/namespaces/inkscape"
   width="97039.719"
   height="39512.113"
   viewBox="0 0 97039.719 39512.113"
   version="1.1"
   xml:space="preserve"
   style="clip-rule:evenodd;fill-rule:evenodd;stroke-linecap:round;stroke-linejoin:round;stroke-miterlimit:1.5"
   id="svg150"
   sodipodi:docname="tanglebay_logo.svg"
   inkscape:version="1.0.1 (3bc2e813f5, 2020-09-07)"><metadata
     id="metadata156"><rdf:RDF><cc:Work
         rdf:about=""><dc:format>image/svg+xml</dc:format><dc:type
           rdf:resource="http://purl.org/dc/dcmitype/StillImage" /></cc:Work></rdf:RDF></metadata><defs
     id="defs154" /><sodipodi:namedview
     pagecolor="#ffffff"
     bordercolor="#666666"
     borderopacity="1"
     objecttolerance="10"
     gridtolerance="10"
     guidetolerance="10"
     inkscape:pageopacity="0"
     inkscape:pageshadow="2"
     inkscape:window-width="3840"
     inkscape:window-height="2066"
     id="namedview152"
     showgrid="false"
     inkscape:zoom="0.01"
     inkscape:cx="76416.133"
     inkscape:cy="17926.127"
     inkscape:window-x="-11"
     inkscape:window-y="-11"
     inkscape:window-maximized="1"
     inkscape:current-layer="g1334" /><g
     id="g118"
     transform="matrix(0.31313497,0,0,0.31313497,2000,1609.6278)"><g
       id="g116"><g
         id="g42"><path
           d="m 34297.4,5692.26 c 219.562,459.859 775.07,661.966 1239.74,451.046 464.669,-210.92 663.665,-755.507 444.103,-1215.37 -219.562,-459.859 -775.071,-661.966 -1239.74,-451.046 -464.669,210.92 -663.665,755.507 -444.103,1215.37 z"
           style="fill:#66a462"
           id="path2" /><g
           id="g6"><path
             d="m 45605.8,5963.54 c 89.498,269.54 417.422,406.76 731.835,306.236 314.412,-100.523 497.014,-400.968 407.516,-670.507 -89.498,-269.54 -417.423,-406.76 -731.835,-306.236 -314.413,100.523 -497.014,400.967 -407.516,670.507 z"
             style="fill:#66a462"
             id="path4" /></g><path
           d="m 38279.8,8533.12 c 152.418,459.035 701.85,695.613 1226.18,527.976 524.327,-167.637 826.269,-676.415 673.851,-1135.45 -152.419,-459.035 -701.85,-695.613 -1226.18,-527.976 -524.327,167.636 -826.269,676.414 -673.851,1135.45 z"
           style="fill:#66a462"
           id="path8" /><path
           d="m 40734.4,13907.2 c 163.262,491.69 700.885,761.37 1199.82,601.85 498.939,-159.52 771.467,-688.22 608.206,-1179.91 -163.262,-491.691 -700.885,-761.371 -1199.82,-601.851 -498.939,159.52 -771.467,688.22 -608.206,1179.91 z"
           style="fill:#66a462"
           id="path10" /><path
           d="m 54728,11604.4 c 134.64,405.49 579.314,627.475 992.389,495.407 413.075,-132.067 639.129,-568.496 504.489,-973.986 -134.639,-405.49 -579.314,-627.475 -992.388,-495.407 -413.075,132.067 -639.129,568.496 -504.49,973.986 z"
           style="fill:#66a462"
           id="path12" /><path
           d="m 44961,12595.2 c 214.289,645.368 933.224,995.092 1604.46,780.485 671.238,-214.607 1042.22,-912.798 827.933,-1558.17 -214.289,-645.368 -933.224,-995.092 -1604.46,-780.485 -671.237,214.607 -1042.22,912.797 -827.933,1558.17 z"
           style="fill:#66a462"
           id="path14" /><path
           d="m 50030.5,12028.7 c 214.289,645.369 933.224,995.092 1604.46,780.485 671.238,-214.606 1042.22,-912.797 827.933,-1558.16 -214.288,-645.369 -933.223,-995.092 -1604.46,-780.486 -671.237,214.607 -1042.22,912.798 -827.933,1558.17 z"
           style="fill:#66a462"
           id="path16" /><g
           id="g20"><path
             d="m 30413.6,10227.4 c 110.847,232.162 404.818,328.06 656.06,214.017 251.243,-114.043 365.226,-395.116 254.38,-627.278 -110.847,-232.162 -404.818,-328.06 -656.06,-214.017 -251.243,114.043 -365.226,395.117 -254.38,627.278 z"
             style="fill:#66a462"
             id="path18" /></g><path
           d="m 31911.2,7964.35 c 188.776,395.379 682.198,561.973 1101.18,371.791 418.982,-190.182 605.881,-665.583 417.105,-1060.96 -188.775,-395.379 -682.197,-561.973 -1101.18,-371.791 -418.982,190.182 -605.88,665.583 -417.105,1060.96 z"
           style="fill:#66a462"
           id="path22" /><g
           id="g26"><path
             d="m 37000.1,3706.14 c 206.11,431.684 750.104,611.186 1214.04,400.598 463.938,-210.587 673.262,-732.031 467.152,-1163.71 -206.11,-431.685 -750.103,-611.187 -1214.04,-400.599 -463.938,210.588 -673.262,732.032 -467.152,1163.72 z"
             style="fill:#66a462"
             id="path24" /></g><g
           id="g30"><path
             d="m 32851.2,12924.2 c 89.499,269.54 417.423,406.759 731.835,306.236 314.413,-100.523 497.015,-400.968 407.516,-670.507 -89.498,-269.54 -417.422,-406.76 -731.835,-306.236 -314.412,100.523 -497.014,400.967 -407.516,670.507 z"
             style="fill:#66a462"
             id="path28" /></g><g
           id="g34"><path
             d="m 37127.9,15784.4 c 113.188,340.885 492.362,525.792 846.209,412.66 353.848,-113.131 549.233,-481.735 436.045,-822.62 -113.188,-340.885 -492.361,-525.792 -846.209,-412.661 -353.847,113.132 -549.232,481.735 -436.045,822.621 z"
             style="fill:#66a462"
             id="path32" /></g><path
           d="m 35072.9,10644.3 c 152.419,459.035 701.85,695.613 1226.18,527.976 524.327,-167.637 826.269,-676.415 673.851,-1135.45 -152.418,-459.035 -701.85,-695.613 -1226.18,-527.976 -524.327,167.636 -826.269,676.414 -673.851,1135.45 z"
           style="fill:#66a462"
           id="path36" /><path
           d="m 40072.4,2269.69 c 110.847,232.162 404.817,328.06 656.06,214.017 251.242,-114.043 365.226,-395.117 254.379,-627.278 -110.847,-232.162 -404.817,-328.06 -656.06,-214.017 -251.242,114.043 -365.226,395.116 -254.379,627.278 z"
           style="fill:#66a462"
           id="path38" /><path
           d="m 41677,6980.85 c 166.415,501.186 772.884,757.382 1353.47,571.758 580.585,-185.624 916.84,-743.226 750.426,-1244.41 -166.414,-501.186 -772.883,-757.382 -1353.47,-571.758 -580.586,185.624 -916.841,743.226 -750.427,1244.41 z"
           style="fill:#66a462"
           id="path40" /></g><g
         id="g84"><path
           d="m 28989.3,23518.6 c 96.101,500.274 -231.476,991.454 -731.06,1096.18 -499.583,104.723 -983.203,-216.414 -1079.3,-716.687 -96.1,-500.274 231.477,-991.454 731.06,-1096.18 499.584,-104.723 983.204,216.414 1079.3,716.687 z"
           style="fill:#66a462"
           id="path44" /><g
           id="g48"><path
             d="m 21687.5,17438.7 c -47.758,279.922 -351.207,464.896 -677.213,412.81 -326.005,-52.085 -551.906,-321.632 -504.147,-601.553 47.758,-279.921 351.207,-464.895 677.213,-412.81 326.005,52.085 551.906,321.632 504.147,601.553 z"
             style="fill:#66a462"
             id="path46" /></g><path
           d="m 29318,18877 c -81.334,476.715 -588.75,793.228 -1132.41,706.369 -543.66,-86.859 -919.009,-544.41 -837.675,-1021.12 81.335,-476.714 588.751,-793.227 1132.41,-706.368 543.659,86.859 919.009,544.41 837.674,1021.12 z"
           style="fill:#66a462"
           id="path50" /><path
           d="m 32725.8,16925.8 c -287.678,431.159 -877.611,549.484 -1316.57,264.067 -438.954,-285.416 -561.771,-867.185 -274.093,-1298.34 287.678,-431.159 877.611,-549.484 1316.57,-264.067 438.954,285.416 561.771,867.185 274.093,1298.34 z"
           style="fill:#66a462"
           id="path52" /><path
           d="m 19839.6,11014.8 c -237.244,355.571 -724.901,452.406 -1088.31,216.108 -363.412,-236.298 -465.845,-716.821 -228.601,-1072.39 237.244,-355.571 724.901,-452.406 1088.31,-216.108 363.412,236.298 465.845,716.821 228.601,1072.39 z"
           style="fill:#66a462"
           id="path54" /><path
           d="m 28997,14545.9 c -377.592,565.918 -1163.59,713.629 -1754.13,329.65 -590.537,-383.979 -763.422,-1155.17 -385.83,-1721.09 377.591,-565.918 1163.59,-713.63 1754.13,-329.651 590.537,383.98 763.422,1155.18 385.83,1721.09 z"
           style="fill:#66a462"
           id="path56" /><path
           d="m 24257.7,12662.8 c -377.591,565.918 -1163.59,713.629 -1754.13,329.65 -590.537,-383.979 -763.422,-1155.17 -385.83,-1721.09 377.592,-565.918 1163.59,-713.629 1754.13,-329.65 590.537,383.979 763.422,1155.17 385.83,1721.09 z"
           style="fill:#66a462"
           id="path58" /><g
           id="g62"><path
             d="m 34810.7,24876.7 c 48.517,252.565 -131.397,503.586 -401.517,560.209 -270.121,56.623 -528.814,-102.458 -577.33,-355.023 -48.517,-252.565 131.397,-503.586 401.517,-560.209 270.121,-56.623 528.814,102.458 577.33,355.023 z"
             style="fill:#66a462"
             id="path60" /></g><path
           d="m 32260.6,23938.7 c 82.625,430.127 -216.013,855.997 -666.476,950.423 -450.464,94.427 -883.265,-178.119 -965.89,-608.246 -82.626,-430.126 216.012,-855.997 666.476,-950.423 450.463,-94.426 883.264,178.12 965.89,608.246 z"
           style="fill:#66a462"
           id="path64" /><g
           id="g68"><path
             d="m 25632.8,23515.9 c 90.213,469.623 -241.506,935.785 -740.304,1040.34 -498.797,104.558 -976.998,-191.828 -1067.21,-661.451 -90.212,-469.622 241.507,-935.784 740.304,-1040.34 498.797,-104.558 976.998,191.828 1067.21,661.45 z"
             style="fill:#66a462"
             id="path66" /></g><g
           id="g72"><path
             d="m 35347.9,22401.5 c -47.759,279.921 -351.207,464.895 -677.213,412.81 -326.005,-52.086 -551.906,-321.632 -504.148,-601.554 47.759,-279.921 351.208,-464.895 677.213,-412.81 326.006,52.086 551.907,321.632 504.148,601.554 z"
             style="fill:#66a462"
             id="path70" /></g><path
           d="m 32807.2,20481.7 c -81.334,476.715 -588.75,793.228 -1132.41,706.368 -543.659,-86.859 -919.009,-544.409 -837.674,-1021.12 81.334,-476.715 588.75,-793.228 1132.41,-706.369 543.66,86.859 919.009,544.41 837.674,1021.12 z"
           style="fill:#66a462"
           id="path74" /><path
           d="m 22304.8,24174.5 c 48.516,252.565 -131.398,503.586 -401.518,560.209 -270.12,56.623 -528.813,-102.457 -577.33,-355.023 -48.517,-252.565 131.397,-503.586 401.518,-560.209 270.12,-56.622 528.813,102.458 577.33,355.023 z"
           style="fill:#66a462"
           id="path76" /><path
           d="m 25725.1,17853.5 c -88.803,520.489 -649.642,864.975 -1251.63,768.796 -601.992,-96.179 -1018.64,-596.835 -929.835,-1117.32 88.803,-520.489 649.642,-864.975 1251.63,-768.796 601.993,96.179 1018.64,596.835 929.835,1117.32 z"
           style="fill:#66a462"
           id="path78" /><g
           id="g82"><path
             d="m 34681.1,19209.9 c -43.558,253.464 141.241,500.926 412.42,552.267 271.178,51.341 526.704,-112.757 570.261,-366.221 43.558,-253.463 -141.241,-500.926 -412.42,-552.266 -271.178,-51.341 -526.704,112.757 -570.261,366.22 z"
             style="fill:#66a462"
             id="path80" /></g></g><g
         id="g114"><g
           id="g88"><path
             d="m 46543.5,17498.4 c -257.677,4.777 -466.679,232.259 -466.433,507.676 0.246,275.418 209.648,495.144 467.325,490.367 257.678,-4.776 466.68,-232.258 466.434,-507.676 -0.246,-275.417 -209.648,-495.143 -467.326,-490.367 z"
             style="fill:#66a462"
             id="path86" /></g><path
           d="m 49260.4,26516.9 c -438.833,8.135 -794.777,387.63 -794.367,846.928 0.411,459.297 357.021,825.584 795.854,817.45 438.834,-8.135 794.778,-387.631 794.367,-846.928 -0.41,-459.297 -357.021,-825.584 -795.854,-817.45 z"
           style="fill:#66a462"
           id="path90" /><path
           d="m 47851,19852.2 c -438.834,8.135 -794.777,387.63 -794.367,846.928 0.411,459.297 357.021,825.584 795.854,817.45 438.834,-8.135 794.778,-387.631 794.367,-846.928 -0.41,-459.297 -357.021,-825.584 -795.854,-817.45 z"
           style="fill:#66a462"
           id="path92" /><g
           id="g96"><path
             d="m 48724.5,23046.6 c -479.129,8.882 -867.752,428.994 -867.297,937.573 0.454,508.578 389.815,914.269 868.944,905.388 479.129,-8.882 867.752,-428.994 867.298,-937.573 -0.455,-508.579 -389.816,-914.269 -868.945,-905.388 z"
             style="fill:#66a462"
             id="path94" /></g><g
           id="g100"><path
             d="m 43901,33413.2 c -282.967,-30.069 -543.71,211.188 -581.907,538.418 -38.197,327.229 160.524,617.309 443.491,647.377 282.966,30.069 543.709,-211.188 581.906,-538.417 38.197,-327.23 -160.524,-617.31 -443.49,-647.378 z"
             style="fill:#66a462"
             id="path98" /></g><g
           id="g104"><path
             d="m 42673.1,18340.5 c -282.966,-30.068 -543.71,211.189 -581.907,538.418 -38.197,327.229 160.525,617.31 443.491,647.378 282.966,30.068 543.71,-211.189 581.907,-538.418 38.197,-327.229 -160.525,-617.309 -443.491,-647.378 z"
             style="fill:#66a462"
             id="path102" /></g><path
           d="m 44389.9,29431.2 c -481.901,-51.208 -924.858,350.258 -988.557,895.959 -63.698,545.701 275.828,1030.31 757.729,1081.52 481.9,51.208 924.858,-350.258 988.556,-895.959 63.699,-545.7 -275.828,-1030.31 -757.728,-1081.52 z"
           style="fill:#66a462"
           id="path106" /><path
           d="m 43776.7,21318.2 c -481.901,-51.207 -924.858,350.259 -988.557,895.959 -63.698,545.701 275.828,1030.32 757.729,1081.52 481.9,51.207 924.857,-350.258 988.556,-895.959 63.699,-545.701 -275.828,-1030.31 -757.728,-1081.52 z"
           style="fill:#66a462"
           id="path108" /><path
           d="m 49241.6,29870.9 c -257.677,4.777 -466.679,232.259 -466.433,507.676 0.246,275.418 209.648,495.144 467.325,490.367 257.678,-4.776 466.68,-232.258 466.434,-507.676 -0.247,-275.417 -209.648,-495.143 -467.326,-490.367 z"
           style="fill:#66a462"
           id="path110" /><path
           d="m 44287.6,25234.2 c -526.15,-55.91 -1010.58,389.276 -1081.12,993.528 -70.534,604.253 299.369,1140.22 825.52,1196.13 526.151,55.909 1010.58,-389.276 1081.12,-993.529 70.533,-604.253 -299.37,-1140.22 -825.521,-1196.13 z"
           style="fill:#66a462"
           id="path112" /></g></g></g><g
     id="g124"
     transform="matrix(0.31313497,0,0,0.31313497,2000,1609.6278)"><path
       d="m 30091.9,43040 c -1497.76,1958.19 -3201.28,3971.1 -5106.89,6203.41 -1412.02,1654.11 7815.22,1257.33 7815.22,1257.33 1571.76,-2439.3 2831.09,-4818.11 3814.04,-7162.49"
       style="fill:#9d6545"
       id="path120" /><path
       d="m 0,44180.6 c 0,-295.571 23374.5,972.518 23374.5,972.518"
       style="fill:none"
       id="path122" /></g><path
     d="m 6195.695,17888.042 c 1035.9979,-1036.805 2073.1581,-1802.605 3117.7702,-2298.657 2664.4408,-1265.266 5377.3148,-775.598 8242.8128,1448.13 -645.393,447.795 -1507.889,696.455 -3458.484,810.192 -1321.43,77.052 -3150.362,-535.959 -4676.011,-596.994 -1833.7434,-72.316 -2721.2537,114.802 -3226.097,637.333 z"
     style="fill:#d88000;stroke:#0060b8;stroke-width:247.899px"
     id="path126" /><path
     d="m 13465.215,15180.364 c 38.674,-92.211 75.96,-184.251 111.913,-276.14 1006.965,-2573.493 960.416,-5026.222 352.067,-7713.3582 -30.691,3854.5352 -882.14,5772.5492 -2506.358,7896.1042"
     style="fill:#9d6545;stroke-width:0.313135"
     id="path128" /><g
     id="g148"
     transform="matrix(0.31313497,0,0,0.31313497,2000,1609.6278)"><path
       d="m 74198.1,44887.3 h 6109.47 V 21998.7 H 89149 V 16508.96 H 65356.7 v 5489.74 h 8841.43 v 22888.6 z"
       style="fill:#0070c3;fill-rule:nonzero"
       id="path130" /><path
       d="m 102621,23036.8 c -2976.5,0 -5910.23,825.418 -8923.57,2352.44 l 2022.65,4007.12 c 1692.42,-868.862 3552.35,-1530.86 5536.69,-1530.86 3513.93,0 4919.47,1985.98 4919.47,4259.74 v 412.609 c -1818.94,-701.435 -3720.6,-1072.77 -5456.89,-1072.77 -4957.99,0 -8879.45,2888.25 -8879.45,7103.86 0,4090.74 3508.68,6814.17 8052.64,6814.17 2315.06,0 4754.14,-907.809 6283.7,-2640.9 v 2145.12 h 5820.26 v -12762.1 c 0,-5580.41 -3797.62,-9088.44 -9375.5,-9088.44 z m -1364.23,18178.6 c -2067.01,0 -3596.61,-1075.14 -3596.61,-2811.91 0,-1736.77 1736.29,-3018.68 3927.33,-3018.68 1653.61,0 3224.54,289.47 4588.74,785.69 v 1984.88 c -413.37,1984.88 -2604.41,3060.02 -4919.47,3060.02 z"
       style="fill:#0070c3;fill-rule:nonzero"
       id="path132" /><path
       d="m 129435,23036.8 c -2769.8,0 -5167.54,1238.22 -6449.09,3178.04 v -2682.26 h -6026.84 v 21354.7 h 6026.84 v -12766.4 l 41.34,123.945 c 0,-2313.64 1942.99,-4131.51 4464.75,-4131.51 2397.74,0 4051.3,1817.87 4051.3,4462.03 v 12311.9 h 5820.26 v -13592.7 c 0,-4832.18 -3302.27,-8257.85 -7928.56,-8257.85 z"
       style="fill:#0070c3;fill-rule:nonzero"
       id="path134" /><path
       d="m 157902,23532.6 v 2888.62 c -1446.72,-2022.37 -4174.89,-3384.41 -7068.4,-3384.41 -5370.87,0 -9457.64,4168.59 -9457.64,10119.6 0,5951.08 4086.76,10160.9 9457.64,10160.9 2810.84,0 5373.67,-1238.18 7068.4,-3301.83 v 2352.55 c 0,2769.76 -2480.12,4548.85 -6365.69,4548.85 -2480.15,0 -4959.01,-786.113 -6362.55,-2027.34 l -2105.3,4256.11 c 2105.3,1650.91 5657.01,2847.83 9418.57,2847.83 6735.92,0 11483.1,-3879.65 11483.1,-9377.81 v -19083.1 h -6068.15 z m -5166.95,14708.2 c -3017.52,0 -5166.99,-2108.13 -5166.99,-5084.32 0,-2976.18 2149.47,-5043.05 5166.99,-5043.05 3017.52,0 5166.95,2066.86 5166.95,5043.05 0,2976.18 -2149.43,5084.32 -5166.95,5084.32 z"
       style="fill:#0070c3;fill-rule:nonzero"
       id="path136" /><rect
       x="169264"
       y="16013.2"
       width="6026.8398"
       height="28874.1"
       style="fill:#0070c3;fill-rule:nonzero"
       id="rect138" /><path
       d="m 190621,40058.6 c -2519.61,0 -4378.33,-1572.06 -5080.52,-3888.78 h 15406.9 c 0,-8056.2 -3924.09,-13133 -10615.5,-13133 -6237.06,0 -10987.1,4664.09 -10987.1,11111 0,6571.25 4956.6,11235.3 11317.6,11235.3 3139.18,0 6815.32,-1320.79 8715.36,-3301.98 l -3841.37,-3925.52 c -1156.54,1116.99 -3221.79,1903.02 -4915.3,1903.02 z m -41.3,-11697.3 c 2436.99,0 4006.59,1365.41 4584.85,3475.63 h -9541.45 c 784.79,-2151.6 2684.82,-3475.63 4956.6,-3475.63 z"
       style="fill:#0070c3;fill-rule:nonzero"
       id="path140" /><path
       d="m 205456,44887.3 h 14913.4 c 5411.72,0 9292.12,-3136.83 9292.12,-7681.3 0,-3142.3 -1898.9,-5785.99 -5201.39,-7271.72 2517.12,-1320.65 3961.94,-3428.22 3961.94,-6322.66 0,-4130.89 -3508.87,-7102.62 -8589.48,-7102.62 h -14376.5 v 28378.3 z m 6068.15,-16934 v -6243.74 h 6778.98 c 2273.44,0 3885.47,1323.2 3885.47,3101.21 0,1819.36 -1612.04,3142.53 -3885.47,3142.53 z m 0,11733.5 v -6946.1 h 7729.69 c 2438.16,0 4174.22,1447.08 4174.22,3473.04 0,2025.95 -1736.06,3473.06 -4174.69,3473.06 z"
       style="fill:#0070c3;fill-rule:nonzero"
       id="path142" /><path
       d="m 243464,23036.8 c -2976.5,0 -5910.23,825.418 -8923.57,2352.44 l 2022.65,4007.12 c 1692.42,-868.862 3552.35,-1530.86 5536.69,-1530.86 3513.93,0 4919.47,1985.98 4919.47,4259.74 v 412.609 c -1818.94,-701.435 -3720.6,-1072.77 -5456.89,-1072.77 -4957.99,0 -8879.45,2888.25 -8879.45,7103.86 0,4090.74 3508.67,6814.17 8052.64,6814.17 2315.06,0 4754.14,-907.809 6283.7,-2640.9 v 2145.12 h 5820.26 v -12762.1 c 0,-5580.41 -3797.62,-9088.44 -9375.5,-9088.44 z m -1364.23,18178.6 c -2067.01,0 -3596.61,-1075.14 -3596.61,-2811.91 0,-1736.77 1736.29,-3018.68 3927.33,-3018.68 1653.61,0 3224.54,289.47 4588.74,785.69 v 1984.88 c -413.37,1984.88 -2604.41,3060.02 -4919.47,3060.02 z"
       style="fill:#0070c3;fill-rule:nonzero"
       id="path144" /><path
       d="m 262800,52324 c 3345.81,0 6072.02,-2187.19 7682.97,-6357.36 l 8756.75,-22434.1 h -6154.46 l -5328.51,14997.4 -5617.65,-14997.4 h -6237.25 l 8880.85,21566.5 -743.51,1569.97 c -454.37,784.987 -1363.11,1156.82 -2519.68,1156.82 -702.21,0 -1776.17,-371.836 -2808.83,-950.248 l -1280.49,4127.86 c 1445.72,784.089 3593.64,1320.57 5369.82,1320.57 z"
       style="fill:#0070c3;fill-rule:nonzero"
       id="path146" /></g><g
     id="g1334"
     transform="translate(-5663.045,1497.3184)"><path
       d="m 48212.772,24229.636 h -1075.123 v 9427.493 h 1075.123 z"
       id="path1126"
       style="stroke-width:50.7374" /><path
       d="m 51674.069,28935.516 c 0,-2638.337 2213.668,-4878.388 4816.999,-4878.388 2618.552,0 4800.76,2220.77 4800.76,4878.388 0,2657.621 -2197.431,4879.407 -4800.76,4879.407 -2588.109,15.222 -4816.999,-2220.773 -4816.999,-4879.407 z m 8542.638,0 c 0,-2094.434 -1698.686,-3877.341 -3725.639,-3877.341 -2026.958,0 -3740.352,1782.907 -3740.352,3877.341 0,2112.194 1713.903,3893.073 3740.352,3893.073 2026.448,0 3725.639,-1780.879 3725.639,-3893.073 z"
       id="path1128"
       style="stroke-width:50.7374" /><path
       d="m 66809.503,25245.903 h -3163.972 v -1014.746 h 7388.874 v 1014.746 h -3165.002 v 8411.226 h -1075.12 z"
       id="path1130"
       style="stroke-width:50.7374" /><path
       d="m 76676.39,25543.222 -3569.369,8113.907 h -1166.96 l 3912.858,-8895.767 a 883.84342,883.84342 0 0 1 811.793,-531.726 869.12958,869.12958 0 0 1 811.812,531.726 l 3912.848,8895.767 h -1166.95 z"
       id="path1132"
       style="stroke-width:50.7374" /><path
       d="m 36731.942,23375.22 a 874.71068,874.71068 0 1 0 -877.755,-875.218 876.2328,876.2328 0 0 0 877.755,875.218 z"
       id="path1134"
       style="stroke-width:50.7374" /><path
       d="m 37718.274,35730.256 a 874.71068,874.71068 0 1 0 -877.248,-874.715 875.72544,875.72544 0 0 0 877.248,874.715 z"
       id="path1136"
       style="stroke-width:50.7374" /><path
       d="m 36982.077,25559.965 a 734.16841,734.16841 0 1 0 -735.691,-734.166 735.18319,735.18319 0 0 0 735.691,734.166 z"
       id="path1138"
       style="stroke-width:50.7374" /><path
       d="m 38940.027,25843.079 a 734.16841,734.16841 0 1 0 -736.197,-734.168 734.67583,734.67583 0 0 0 736.197,734.168 z"
       id="path1140"
       style="stroke-width:50.7374" /><path
       d="m 36731.942,27420.502 a 625.08329,625.08329 0 1 0 -626.607,-624.575 625.08329,625.08329 0 0 0 626.607,624.575 z"
       id="path1142"
       style="stroke-width:50.7374" /><path
       d="m 38688.877,27685.857 a 624.57589,624.57589 0 1 0 -626.603,-624.577 625.59065,625.59065 0 0 0 626.603,624.577 z"
       id="path1144"
       style="stroke-width:50.7374" /><path
       d="m 40254.63,28295.212 a 625.08329,625.08329 0 1 0 -626.098,-624.577 625.08329,625.08329 0 0 0 626.098,624.577 z"
       id="path1146"
       style="stroke-width:50.7374" /><path
       d="m 38109.457,29185.145 a 546.4405,546.4405 0 1 0 -547.96,-546.441 547.45524,547.45524 0 0 0 547.96,546.441 z"
       id="path1148"
       style="stroke-width:50.7374" /><path
       d="m 36152.013,28919.789 a 546.94788,546.94788 0 1 0 -547.455,-546.442 547.45524,547.45524 0 0 0 547.455,546.442 z"
       id="path1150"
       style="stroke-width:50.7374" /><path
       d="m 39690.94,29795.006 a 546.94788,546.94788 0 1 0 -547.964,-547.455 547.96262,547.96262 0 0 0 547.964,547.455 z"
       id="path1152"
       style="stroke-width:50.7374" /><path
       d="m 37326.583,30325.719 a 468.81247,468.81247 0 1 0 -469.831,-468.304 469.31983,469.31983 0 0 0 469.831,468.304 z"
       id="path1154"
       style="stroke-width:50.7374" /><path
       d="m 38910.095,30919.343 a 468.81247,468.81247 0 1 0 -469.321,-468.812 469.82719,469.82719 0 0 0 469.321,468.812 z"
       id="path1156"
       style="stroke-width:50.7374" /><path
       d="m 35384.866,30044.635 a 468.81247,468.81247 0 1 0 -469.827,-468.814 469.31983,469.31983 0 0 0 469.827,468.814 z"
       id="path1158"
       style="stroke-width:50.7374" /><path
       d="m 36465.571,31090.331 a 390.67706,390.67706 0 1 0 -391.692,-390.68 391.18442,391.18442 0 0 0 391.692,390.68 z"
       id="path1160"
       style="stroke-width:50.7374" /><path
       d="m 37138.346,32169.001 a 343.99876,343.99876 0 1 0 -343.998,-343.995 343.99876,343.99876 0 0 0 343.998,343.995 z"
       id="path1162"
       style="stroke-width:50.7374" /><path
       d="m 36308.793,32387.682 a 281.5919,281.5919 0 1 0 -281.593,-281.084 282.09927,282.09927 0 0 0 281.593,281.084 z"
       id="path1164"
       style="stroke-width:50.7374" /><path
       d="m 35572.593,31574.868 a 343.49138,343.49138 0 1 0 -344.506,-343.488 343.49138,343.49138 0 0 0 344.506,343.488 z"
       id="path1166"
       style="stroke-width:50.7374" /><path
       d="m 34508.127,30825.989 a 390.67706,390.67706 0 1 0 -391.693,-390.678 391.18442,391.18442 0 0 0 391.693,390.678 z"
       id="path1168"
       style="stroke-width:50.7374" /><path
       d="m 34492.396,27888.807 a 390.67706,390.67706 0 1 0 -391.691,-390.678 391.18442,391.18442 0 0 0 391.691,390.678 z"
       id="path1170"
       style="stroke-width:50.7374" /><path
       d="m 34664.399,26514.333 a 343.49138,343.49138 0 1 0 -344.509,-343.491 343.99876,343.99876 0 0 0 344.509,343.491 z"
       id="path1172"
       style="stroke-width:50.7374" /><path
       d="m 35040.361,25389.996 a 281.5919,281.5919 0 1 0 -281.594,-281.085 282.09927,282.09927 0 0 0 281.594,281.085 z"
       id="path1174"
       style="stroke-width:50.7374" /><path
       d="m 34382.297,24859.285 a 343.99876,343.99876 0 1 0 -343.996,-343.999 343.99876,343.99876 0 0 0 343.996,343.999 z"
       id="path1176"
       style="stroke-width:50.7374" /><path
       d="m 38031.322,31684.465 a 390.67706,390.67706 0 1 0 -389.661,-391.183 391.18442,391.18442 0 0 0 389.661,391.183 z"
       id="path1178"
       style="stroke-width:50.7374" /><path
       d="m 33490.338,24406.2 a 390.67706,390.67706 0 1 0 -392.2,-390.678 391.18442,391.18442 0 0 0 392.2,390.678 z"
       id="path1180"
       style="stroke-width:50.7374" /><path
       d="m 33756.2,26061.76 a 390.67706,390.67706 0 1 0 -391.691,-390.68 391.18442,391.18442 0 0 0 391.691,390.68 z"
       id="path1182"
       style="stroke-width:50.7374" /><path
       d="m 33317.831,27640.195 a 468.81247,468.81247 0 1 0 -469.321,-468.812 469.31983,469.31983 0 0 0 469.321,468.812 z"
       id="path1184"
       style="stroke-width:50.7374" /><path
       d="m 31892.62,27640.195 a 546.94788,546.94788 0 1 0 -547.963,-546.949 547.45524,547.45524 0 0 0 547.963,546.949 z"
       id="path1186"
       style="stroke-width:50.7374" /><path
       d="m 30234.019,28014.128 a 625.08329,625.08329 0 1 0 -626.605,-624.578 626.09802,626.09802 0 0 0 626.605,624.578 z"
       id="path1188"
       style="stroke-width:50.7374" /><path
       d="m 28416.102,28904.06 a 734.16841,734.16841 0 1 0 -735.689,-733.66 735.18319,735.18319 0 0 0 735.689,733.66 z"
       id="path1190"
       style="stroke-width:50.7374" /><path
       d="m 26537.298,30403.854 a 874.71068,874.71068 0 1 0 -877.245,-874.71 875.72544,875.72544 0 0 0 877.245,874.71 z"
       id="path1192"
       style="stroke-width:50.7374" /><path
       d="m 27680.413,27077.011 a 734.16841,734.16841 0 1 0 -736.201,-734.166 735.18319,735.18319 0 0 0 736.201,734.166 z"
       id="path1194"
       style="stroke-width:50.7374" /><path
       d="m 29496.299,26186.571 a 625.08329,625.08329 0 1 0 -625.591,-626.606 625.59065,625.59065 0 0 0 625.591,626.606 z"
       id="path1196"
       style="stroke-width:50.7374" /><path
       d="m 29230.437,24531.013 a 625.08329,625.08329 0 1 0 -626.099,-625.082 626.09802,626.09802 0 0 0 626.099,625.082 z"
       id="path1198"
       style="stroke-width:50.7374" /><path
       d="m 30890.557,24156.065 a 546.94788,546.94788 0 1 0 -548.468,-546.948 547.45524,547.45524 0 0 0 548.468,546.948 z"
       id="path1200"
       style="stroke-width:50.7374" /><path
       d="m 32314.247,24156.065 a 468.81247,468.81247 0 1 0 -469.321,-468.814 469.82719,469.82719 0 0 0 469.321,468.814 z"
       id="path1202"
       style="stroke-width:50.7374" /><path
       d="m 32581.634,25813.653 a 468.3051,468.3051 0 1 0 -469.828,-468.304 469.31983,469.31983 0 0 0 469.828,468.304 z"
       id="path1204"
       style="stroke-width:50.7374" /><path
       d="m 31156.927,25827.353 a 546.94788,546.94788 0 1 0 -548.466,-546.951 547.96262,547.96262 0 0 0 548.466,546.951 z"
       id="path1206"
       style="stroke-width:50.7374" /><path
       d="m 29606.397,29982.226 a 281.5919,281.5919 0 1 0 -282.098,-281.591 282.09927,282.09927 0 0 0 282.098,281.591 z"
       id="path1208"
       style="stroke-width:50.7374" /><path
       d="m 30734.29,29841.685 a 343.99876,343.99876 0 1 0 -345.014,-343.995 344.50612,344.50612 0 0 0 345.014,343.995 z"
       id="path1210"
       style="stroke-width:50.7374" /><path
       d="m 31970.754,29372.874 a 390.67706,390.67706 0 1 0 -391.183,-390.173 390.67706,390.67706 0 0 0 391.183,390.173 z"
       id="path1212"
       style="stroke-width:50.7374" /><path
       d="m 32268.586,30622.53 a 468.81247,468.81247 0 1 0 -469.83,-468.809 468.81247,468.81247 0 0 0 469.83,468.809 z"
       id="path1214"
       style="stroke-width:50.7374" /><path
       d="m 30765.238,30918.836 a 390.67706,390.67706 0 1 0 -391.185,-390.673 391.18442,391.18442 0 0 0 391.185,390.673 z"
       id="path1216"
       style="stroke-width:50.7374" /><path
       d="m 29433.89,30903.618 a 343.99876,343.99876 0 1 0 -343.996,-343.491 344.50612,344.50612 0 0 0 343.996,343.491 z"
       id="path1218"
       style="stroke-width:50.7374" /><path
       d="m 29449.621,31981.781 a 390.67706,390.67706 0 1 0 -391.693,-390.674 391.18442,391.18442 0 0 0 391.693,390.674 z"
       id="path1220"
       style="stroke-width:50.7374" /><path
       d="m 31045.816,32184.224 a 468.81247,468.81247 0 1 0 -469.32,-468.305 469.31983,469.31983 0 0 0 469.32,468.305 z"
       id="path1222"
       style="stroke-width:50.7374" /><path
       d="m 32910.917,31981.781 a 546.94788,546.94788 0 1 0 -545.935,-547.454 547.96262,547.96262 0 0 0 545.935,547.454 z"
       id="path1224"
       style="stroke-width:50.7374" /><path
       d="m 34006.843,33340.527 a 625.08329,625.08329 0 1 0 -627.113,-626.602 626.09802,626.09802 0 0 0 627.113,626.602 z"
       id="path1226"
       style="stroke-width:50.7374" /><path
       d="m 31705.401,33525.72 a 546.94788,546.94788 0 1 0 -547.964,-546.951 547.96262,547.96262 0 0 0 547.964,546.951 z"
       id="path1228"
       style="stroke-width:50.7374" /><path
       d="m 30405.001,34591.201 a 546.94788,546.94788 0 1 0 -547.958,-546.439 546.94788,546.94788 0 0 0 547.958,546.439 z"
       id="path1230"
       style="stroke-width:50.7374" /><path
       d="m 31485.707,35964.153 a 624.57589,624.57589 0 1 0 -626.605,-624.575 625.08329,625.08329 0 0 0 626.605,624.575 z"
       id="path1232"
       style="stroke-width:50.7374" /><path
       d="m 34367.076,36214.795 a 734.16841,734.16841 0 1 0 -733.659,-734.17 735.18319,735.18319 0 0 0 733.659,734.17 z"
       id="path1234"
       style="stroke-width:50.7374" /><path
       d="m 32785.596,34902.22 a 625.08329,625.08329 0 1 0 -626.606,-625.081 626.09802,626.09802 0 0 0 626.606,625.081 z"
       id="path1236"
       style="stroke-width:50.7374" /><path
       d="m 35572.593,34652.592 a 734.67583,734.67583 0 1 0 -735.689,-734.168 735.18319,735.18319 0 0 0 735.689,734.168 z"
       id="path1238"
       style="stroke-width:50.7374" /><path
       d="m 29747.447,33246.666 a 468.81247,468.81247 0 1 0 -470.333,-468.308 469.31983,469.31983 0 0 0 470.333,468.308 z"
       id="path1240"
       style="stroke-width:50.7374" /><path
       d="m 47137.649,20711.51 v -2584.554 h 1135.502 c 542.38,0 844.27,372.411 844.27,809.259 0,436.849 -304.428,811.798 -844.27,811.798 h -681.402 v 964.006 h -456.637 z m 1515.521,-1775.804 c 0,-247.599 -186.204,-409.953 -441.41,-409.953 h -620.011 v 821.434 h 620.011 c 255.206,1.012 439.889,-161.344 439.889,-409.451 z"
       id="path1242"
       style="stroke-width:50.7374" /><path
       d="m 49501.498,19420.754 c 0,-770.698 546.947,-1336.926 1319.171,-1336.926 772.22,0 1322.214,566.228 1322.214,1336.926 0,770.703 -546.948,1336.423 -1322.214,1336.423 -775.265,0 -1319.171,-563.691 -1319.171,-1336.423 z m 2178.155,0 c 0,-534.772 -336.387,-934.581 -856.447,-934.581 -520.057,0 -855.936,399.809 -855.936,934.581 0,534.77 333.342,934.074 855.936,934.074 522.592,0 856.447,-401.84 856.447,-934.074 z"
       id="path1244"
       style="stroke-width:50.7374" /><path
       d="m 54605.671,20711.51 -503.315,-1905.69 -500.269,1905.69 h -485.556 l -738.227,-2584.554 h 507.371 l 503.315,1991.438 534.263,-1991.438 h 360.233 l 534.772,1991.438 500.27,-1991.438 h 507.373 l -735.688,2584.554 z"
       id="path1246"
       style="stroke-width:50.7374" /><path
       d="m 56254.123,20711.51 v -2584.554 h 1771.241 v 399.3 h -1319.17 v 670.242 h 1289.739 v 399.3 h -1287.71 v 716.412 h 1319.172 v 399.3 z"
       id="path1248"
       style="stroke-width:50.7374" /><path
       d="m 60090.37,20711.51 -573.836,-964.006 h -449.03 v 964.006 h -453.589 v -2584.554 h 1135.5 c 512.448,0 844.27,333.342 844.27,809.259 0,461.199 -304.424,710.32 -612.907,761.061 l 632.187,1014.743 z m 39.068,-1775.804 c 0,-247.599 -186.207,-409.953 -441.415,-409.953 h -620.519 v 821.434 h 620.519 c 255.208,1.012 441.415,-161.344 441.415,-409.451 z"
       id="path1250"
       style="stroke-width:50.7374" /><path
       d="m 61171.584,20711.51 v -2584.554 h 1770.728 v 399.3 h -1319.166 v 670.242 h 1290.247 v 399.3 h -1288.218 v 716.412 h 1319.166 v 399.3 z"
       id="path1252"
       style="stroke-width:50.7374" /><path
       d="m 63532.895,20711.51 v -2584.554 h 960.963 c 806.722,0 1351.644,534.77 1351.644,1294.814 0,760.044 -546.442,1289.74 -1351.644,1289.74 z m 1848.866,-1290.756 c 0,-500.268 -309.498,-895.511 -887.903,-895.511 h -507.373 v 1785.951 h 507.373 c 561.662,2.538 887.903,-401.329 887.903,-890.44 z"
       id="path1254"
       style="stroke-width:50.7374" /><path
       d="m 67529.468,20711.51 v -2584.554 h 1268.442 c 472.865,0 735.685,294.277 735.685,659.584 0,326.24 -208.53,542.378 -449.027,593.624 274.99,42.115 500.266,316.603 500.266,635.232 0,399.304 -267.385,696.623 -752.431,696.623 z m 1540.893,-1848.866 c 0,-193.816 -132.417,-336.388 -363.272,-336.388 h -724.53 v 670.242 h 724.017 c 232.882,1.522 363.785,-138.514 363.785,-333.854 z m 50.738,1088.823 c 0,-193.309 -134.956,-355.16 -394.738,-355.16 h -743.802 v 717.425 h 743.29 c 248.113,0 395.25,-136.484 395.25,-360.744 z"
       id="path1256"
       style="stroke-width:50.7374" /><path
       d="m 70780.715,20711.51 v -1073.601 l -1003.084,-1510.953 h 519.564 l 713.361,1108.608 705.76,-1108.608 h 520.045 l -1000.532,1510.953 v 1073.601 z"
       id="path1258"
       style="stroke-width:50.7374" /></g></svg>
