<?xml version="1.0" encoding="UTF-8" standalone="no"?>
<svg
   xmlns:dc="http://purl.org/dc/elements/1.1/"
   xmlns:cc="http://creativecommons.org/ns#"
   xmlns:rdf="http://www.w3.org/1999/02/22-rdf-syntax-ns#"
   xmlns:svg="http://www.w3.org/2000/svg"
   xmlns="http://www.w3.org/2000/svg"
   xmlns:sodipodi="http://sodipodi.sourceforge.net/DTD/sodipodi-0.dtd"
   xmlns:inkscape="http://www.inkscape.org/namespaces/inkscape"
   width="210mm"
   height="297mm"
   viewBox="0 0 210 297"
   version="1.1"
   id="svg899"
   inkscape:version="1.0.1 (3bc2e813f5, 2020-09-07)"
   sodipodi:docname="tanglebay.svg">
  <defs
     id="defs893" />
  <sodipodi:namedview
     id="base"
     pagecolor="#ffffff"
     bordercolor="#666666"
     borderopacity="1.0"
     inkscape:pageopacity="0.0"
     inkscape:pageshadow="2"
     inkscape:zoom="0.45254834"
     inkscape:cx="-1119.5473"
     inkscape:cy="1039.0976"
     inkscape:document-units="mm"
     inkscape:current-layer="layer1"
     inkscape:document-rotation="0"
     showgrid="false"
     inkscape:window-width="2880"
     inkscape:window-height="1526"
     inkscape:window-x="5749"
     inkscape:window-y="799"
     inkscape:window-maximized="1" />
  <metadata
     id="metadata896">
    <rdf:RDF>
      <cc:Work
         rdf:about="">
        <dc:format>image/svg+xml</dc:format>
        <dc:type
           rdf:resource="http://purl.org/dc/dcmitype/StillImage" />
        <dc:title></dc:title>
      </cc:Work>
    </rdf:RDF>
  </metadata>
  <g
     inkscape:label="Ebene 1"
     inkscape:groupmode="layer"
     id="layer1">
    <g
       id="g118"
       style="clip-rule:evenodd;fill-rule:evenodd;stroke-linecap:round;stroke-linejoin:round;stroke-miterlimit:1.5"
       transform="matrix(0.00330729,0,0,0.00330729,-8.1615754,57.190141)">
      <g
         id="g116">
        <g
           id="g42">
          <path
             d="m 34297.4,5692.26 c 219.562,459.859 775.07,661.966 1239.74,451.046 464.669,-210.92 663.665,-755.507 444.103,-1215.37 -219.562,-459.859 -775.071,-661.966 -1239.74,-451.046 -464.669,210.92 -663.665,755.507 -444.103,1215.37 z"
             style="fill:#66a462"
             id="path2" />
          <g
             id="g6">
            <path
               d="m 45605.8,5963.54 c 89.498,269.54 417.422,406.76 731.835,306.236 314.412,-100.523 497.014,-400.968 407.516,-670.507 -89.498,-269.54 -417.423,-406.76 -731.835,-306.236 -314.413,100.523 -497.014,400.967 -407.516,670.507 z"
               style="fill:#66a462"
               id="path4" />
          </g>
          <path
             d="m 38279.8,8533.12 c 152.418,459.035 701.85,695.613 1226.18,527.976 524.327,-167.637 826.269,-676.415 673.851,-1135.45 -152.419,-459.035 -701.85,-695.613 -1226.18,-527.976 -524.327,167.636 -826.269,676.414 -673.851,1135.45 z"
             style="fill:#66a462"
             id="path8" />
          <path
             d="m 40734.4,13907.2 c 163.262,491.69 700.885,761.37 1199.82,601.85 498.939,-159.52 771.467,-688.22 608.206,-1179.91 -163.262,-491.691 -700.885,-761.371 -1199.82,-601.851 -498.939,159.52 -771.467,688.22 -608.206,1179.91 z"
             style="fill:#66a462"
             id="path10" />
          <path
             d="m 54728,11604.4 c 134.64,405.49 579.314,627.475 992.389,495.407 413.075,-132.067 639.129,-568.496 504.489,-973.986 -134.639,-405.49 -579.314,-627.475 -992.388,-495.407 -413.075,132.067 -639.129,568.496 -504.49,973.986 z"
             style="fill:#66a462"
             id="path12" />
          <path
             d="m 44961,12595.2 c 214.289,645.368 933.224,995.092 1604.46,780.485 671.238,-214.607 1042.22,-912.798 827.933,-1558.17 -214.289,-645.368 -933.224,-995.092 -1604.46,-780.485 -671.237,214.607 -1042.22,912.797 -827.933,1558.17 z"
             style="fill:#66a462"
             id="path14" />
          <path
             d="m 50030.5,12028.7 c 214.289,645.369 933.224,995.092 1604.46,780.485 671.238,-214.606 1042.22,-912.797 827.933,-1558.16 -214.288,-645.369 -933.223,-995.092 -1604.46,-780.486 -671.237,214.607 -1042.22,912.798 -827.933,1558.17 z"
             style="fill:#66a462"
             id="path16" />
          <g
             id="g20">
            <path
               d="m 30413.6,10227.4 c 110.847,232.162 404.818,328.06 656.06,214.017 251.243,-114.043 365.226,-395.116 254.38,-627.278 -110.847,-232.162 -404.818,-328.06 -656.06,-214.017 -251.243,114.043 -365.226,395.117 -254.38,627.278 z"
               style="fill:#66a462"
               id="path18" />
          </g>
          <path
             d="m 31911.2,7964.35 c 188.776,395.379 682.198,561.973 1101.18,371.791 418.982,-190.182 605.881,-665.583 417.105,-1060.96 -188.775,-395.379 -682.197,-561.973 -1101.18,-371.791 -418.982,190.182 -605.88,665.583 -417.105,1060.96 z"
             style="fill:#66a462"
             id="path22" />
          <g
             id="g26">
            <path
               d="m 37000.1,3706.14 c 206.11,431.684 750.104,611.186 1214.04,400.598 463.938,-210.587 673.262,-732.031 467.152,-1163.71 -206.11,-431.685 -750.103,-611.187 -1214.04,-400.599 -463.938,210.588 -673.262,732.032 -467.152,1163.72 z"
               style="fill:#66a462"
               id="path24" />
          </g>
          <g
             id="g30">
            <path
               d="m 32851.2,12924.2 c 89.499,269.54 417.423,406.759 731.835,306.236 314.413,-100.523 497.015,-400.968 407.516,-670.507 -89.498,-269.54 -417.422,-406.76 -731.835,-306.236 -314.412,100.523 -497.014,400.967 -407.516,670.507 z"
               style="fill:#66a462"
               id="path28" />
          </g>
          <g
             id="g34">
            <path
               d="m 37127.9,15784.4 c 113.188,340.885 492.362,525.792 846.209,412.66 353.848,-113.131 549.233,-481.735 436.045,-822.62 -113.188,-340.885 -492.361,-525.792 -846.209,-412.661 -353.847,113.132 -549.232,481.735 -436.045,822.621 z"
               style="fill:#66a462"
               id="path32" />
          </g>
          <path
             d="m 35072.9,10644.3 c 152.419,459.035 701.85,695.613 1226.18,527.976 524.327,-167.637 826.269,-676.415 673.851,-1135.45 -152.418,-459.035 -701.85,-695.613 -1226.18,-527.976 -524.327,167.636 -826.269,676.414 -673.851,1135.45 z"
             style="fill:#66a462"
             id="path36" />
          <path
             d="m 40072.4,2269.69 c 110.847,232.162 404.817,328.06 656.06,214.017 251.242,-114.043 365.226,-395.117 254.379,-627.278 -110.847,-232.162 -404.817,-328.06 -656.06,-214.017 -251.242,114.043 -365.226,395.116 -254.379,627.278 z"
             style="fill:#66a462"
             id="path38" />
          <path
             d="m 41677,6980.85 c 166.415,501.186 772.884,757.382 1353.47,571.758 580.585,-185.624 916.84,-743.226 750.426,-1244.41 -166.414,-501.186 -772.883,-757.382 -1353.47,-571.758 -580.586,185.624 -916.841,743.226 -750.427,1244.41 z"
             style="fill:#66a462"
             id="path40" />
        </g>
        <g
           id="g84">
          <path
             d="m 28989.3,23518.6 c 96.101,500.274 -231.476,991.454 -731.06,1096.18 -499.583,104.723 -983.203,-216.414 -1079.3,-716.687 -96.1,-500.274 231.477,-991.454 731.06,-1096.18 499.584,-104.723 983.204,216.414 1079.3,716.687 z"
             style="fill:#66a462"
             id="path44" />
          <g
             id="g48">
            <path
               d="m 21687.5,17438.7 c -47.758,279.922 -351.207,464.896 -677.213,412.81 -326.005,-52.085 -551.906,-321.632 -504.147,-601.553 47.758,-279.921 351.207,-464.895 677.213,-412.81 326.005,52.085 551.906,321.632 504.147,601.553 z"
               style="fill:#66a462"
               id="path46" />
          </g>
          <path
             d="m 29318,18877 c -81.334,476.715 -588.75,793.228 -1132.41,706.369 -543.66,-86.859 -919.009,-544.41 -837.675,-1021.12 81.335,-476.714 588.751,-793.227 1132.41,-706.368 543.659,86.859 919.009,544.41 837.674,1021.12 z"
             style="fill:#66a462"
             id="path50" />
          <path
             d="m 32725.8,16925.8 c -287.678,431.159 -877.611,549.484 -1316.57,264.067 -438.954,-285.416 -561.771,-867.185 -274.093,-1298.34 287.678,-431.159 877.611,-549.484 1316.57,-264.067 438.954,285.416 561.771,867.185 274.093,1298.34 z"
             style="fill:#66a462"
             id="path52" />
          <path
             d="m 19839.6,11014.8 c -237.244,355.571 -724.901,452.406 -1088.31,216.108 -363.412,-236.298 -465.845,-716.821 -228.601,-1072.39 237.244,-355.571 724.901,-452.406 1088.31,-216.108 363.412,236.298 465.845,716.821 228.601,1072.39 z"
             style="fill:#66a462"
             id="path54" />
          <path
             d="m 28997,14545.9 c -377.592,565.918 -1163.59,713.629 -1754.13,329.65 -590.537,-383.979 -763.422,-1155.17 -385.83,-1721.09 377.591,-565.918 1163.59,-713.63 1754.13,-329.651 590.537,383.98 763.422,1155.18 385.83,1721.09 z"
             style="fill:#66a462"
             id="path56" />
          <path
             d="m 24257.7,12662.8 c -377.591,565.918 -1163.59,713.629 -1754.13,329.65 -590.537,-383.979 -763.422,-1155.17 -385.83,-1721.09 377.592,-565.918 1163.59,-713.629 1754.13,-329.65 590.537,383.979 763.422,1155.17 385.83,1721.09 z"
             style="fill:#66a462"
             id="path58" />
          <g
             id="g62">
            <path
               d="m 34810.7,24876.7 c 48.517,252.565 -131.397,503.586 -401.517,560.209 -270.121,56.623 -528.814,-102.458 -577.33,-355.023 -48.517,-252.565 131.397,-503.586 401.517,-560.209 270.121,-56.623 528.814,102.458 577.33,355.023 z"
               style="fill:#66a462"
               id="path60" />
          </g>
          <path
             d="m 32260.6,23938.7 c 82.625,430.127 -216.013,855.997 -666.476,950.423 -450.464,94.427 -883.265,-178.119 -965.89,-608.246 -82.626,-430.126 216.012,-855.997 666.476,-950.423 450.463,-94.426 883.264,178.12 965.89,608.246 z"
             style="fill:#66a462"
             id="path64" />
          <g
             id="g68">
            <path
               d="m 25632.8,23515.9 c 90.213,469.623 -241.506,935.785 -740.304,1040.34 -498.797,104.558 -976.998,-191.828 -1067.21,-661.451 -90.212,-469.622 241.507,-935.784 740.304,-1040.34 498.797,-104.558 976.998,191.828 1067.21,661.45 z"
               style="fill:#66a462"
               id="path66" />
          </g>
          <g
             id="g72">
            <path
               d="m 35347.9,22401.5 c -47.759,279.921 -351.207,464.895 -677.213,412.81 -326.005,-52.086 -551.906,-321.632 -504.148,-601.554 47.759,-279.921 351.208,-464.895 677.213,-412.81 326.006,52.086 551.907,321.632 504.148,601.554 z"
               style="fill:#66a462"
               id="path70" />
          </g>
          <path
             d="m 32807.2,20481.7 c -81.334,476.715 -588.75,793.228 -1132.41,706.368 -543.659,-86.859 -919.009,-544.409 -837.674,-1021.12 81.334,-476.715 588.75,-793.228 1132.41,-706.369 543.66,86.859 919.009,544.41 837.674,1021.12 z"
             style="fill:#66a462"
             id="path74" />
          <path
             d="m 22304.8,24174.5 c 48.516,252.565 -131.398,503.586 -401.518,560.209 -270.12,56.623 -528.813,-102.457 -577.33,-355.023 -48.517,-252.565 131.397,-503.586 401.518,-560.209 270.12,-56.622 528.813,102.458 577.33,355.023 z"
             style="fill:#66a462"
             id="path76" />
          <path
             d="m 25725.1,17853.5 c -88.803,520.489 -649.642,864.975 -1251.63,768.796 -601.992,-96.179 -1018.64,-596.835 -929.835,-1117.32 88.803,-520.489 649.642,-864.975 1251.63,-768.796 601.993,96.179 1018.64,596.835 929.835,1117.32 z"
             style="fill:#66a462"
             id="path78" />
          <g
             id="g82">
            <path
               d="m 34681.1,19209.9 c -43.558,253.464 141.241,500.926 412.42,552.267 271.178,51.341 526.704,-112.757 570.261,-366.221 43.558,-253.463 -141.241,-500.926 -412.42,-552.266 -271.178,-51.341 -526.704,112.757 -570.261,366.22 z"
               style="fill:#66a462"
               id="path80" />
          </g>
        </g>
        <g
           id="g114">
          <g
             id="g88">
            <path
               d="m 46543.5,17498.4 c -257.677,4.777 -466.679,232.259 -466.433,507.676 0.246,275.418 209.648,495.144 467.325,490.367 257.678,-4.776 466.68,-232.258 466.434,-507.676 -0.246,-275.417 -209.648,-495.143 -467.326,-490.367 z"
               style="fill:#66a462"
               id="path86" />
          </g>
          <path
             d="m 49260.4,26516.9 c -438.833,8.135 -794.777,387.63 -794.367,846.928 0.411,459.297 357.021,825.584 795.854,817.45 438.834,-8.135 794.778,-387.631 794.367,-846.928 -0.41,-459.297 -357.021,-825.584 -795.854,-817.45 z"
             style="fill:#66a462"
             id="path90" />
          <path
             d="m 47851,19852.2 c -438.834,8.135 -794.777,387.63 -794.367,846.928 0.411,459.297 357.021,825.584 795.854,817.45 438.834,-8.135 794.778,-387.631 794.367,-846.928 -0.41,-459.297 -357.021,-825.584 -795.854,-817.45 z"
             style="fill:#66a462"
             id="path92" />
          <g
             id="g96">
            <path
               d="m 48724.5,23046.6 c -479.129,8.882 -867.752,428.994 -867.297,937.573 0.454,508.578 389.815,914.269 868.944,905.388 479.129,-8.882 867.752,-428.994 867.298,-937.573 -0.455,-508.579 -389.816,-914.269 -868.945,-905.388 z"
               style="fill:#66a462"
               id="path94" />
          </g>
          <g
             id="g100">
            <path
               d="m 43901,33413.2 c -282.967,-30.069 -543.71,211.188 -581.907,538.418 -38.197,327.229 160.524,617.309 443.491,647.377 282.966,30.069 543.709,-211.188 581.906,-538.417 38.197,-327.23 -160.524,-617.31 -443.49,-647.378 z"
               style="fill:#66a462"
               id="path98" />
          </g>
          <g
             id="g104">
            <path
               d="m 42673.1,18340.5 c -282.966,-30.068 -543.71,211.189 -581.907,538.418 -38.197,327.229 160.525,617.31 443.491,647.378 282.966,30.068 543.71,-211.189 581.907,-538.418 38.197,-327.229 -160.525,-617.309 -443.491,-647.378 z"
               style="fill:#66a462"
               id="path102" />
          </g>
          <path
             d="m 44389.9,29431.2 c -481.901,-51.208 -924.858,350.258 -988.557,895.959 -63.698,545.701 275.828,1030.31 757.729,1081.52 481.9,51.208 924.858,-350.258 988.556,-895.959 63.699,-545.7 -275.828,-1030.31 -757.728,-1081.52 z"
             style="fill:#66a462"
             id="path106" />
          <path
             d="m 43776.7,21318.2 c -481.901,-51.207 -924.858,350.259 -988.557,895.959 -63.698,545.701 275.828,1030.32 757.729,1081.52 481.9,51.207 924.857,-350.258 988.556,-895.959 63.699,-545.701 -275.828,-1030.31 -757.728,-1081.52 z"
             style="fill:#66a462"
             id="path108" />
          <path
             d="m 49241.6,29870.9 c -257.677,4.777 -466.679,232.259 -466.433,507.676 0.246,275.418 209.648,495.144 467.325,490.367 257.678,-4.776 466.68,-232.258 466.434,-507.676 -0.247,-275.417 -209.648,-495.143 -467.326,-490.367 z"
             style="fill:#66a462"
             id="path110" />
          <path
             d="m 44287.6,25234.2 c -526.15,-55.91 -1010.58,389.276 -1081.12,993.528 -70.534,604.253 299.369,1140.22 825.52,1196.13 526.151,55.909 1010.58,-389.276 1081.12,-993.529 70.533,-604.253 -299.37,-1140.22 -825.521,-1196.13 z"
             style="fill:#66a462"
             id="path112" />
        </g>
      </g>
    </g>
    <g
       id="g124"
       style="clip-rule:evenodd;fill-rule:evenodd;stroke-linecap:round;stroke-linejoin:round;stroke-miterlimit:1.5"
       transform="matrix(0.00330729,0,0,0.00330729,-8.1615754,57.190141)">
      <path
         d="m 30091.9,43040 c -1497.76,1958.19 -3201.28,3971.1 -5106.89,6203.41 -1412.02,1654.11 7815.22,1257.33 7815.22,1257.33 1571.76,-2439.3 2831.09,-4818.11 3814.04,-7162.49"
         style="fill:#9d6545"
         id="path120" />
      <path
         d="m 0,44180.6 c 0,-295.571 23374.5,972.518 23374.5,972.518"
         style="fill:none"
         id="path122" />
    </g>
    <path
       d="m 36.152827,229.12069 c 10.942107,-10.95061 21.896488,-19.03889 32.929514,-24.27814 28.141413,-13.36357 56.794459,-8.19176 87.059489,15.29497 -6.81653,4.72956 -15.92617,7.35588 -36.52804,8.55716 -13.95674,0.8138 -33.273671,-5.66073 -49.387457,-6.30539 -19.367831,-0.76377 -28.741556,1.21253 -34.073704,6.73143 z"
       style="clip-rule:evenodd;fill:#d88000;fill-rule:evenodd;stroke:#0060b8;stroke-width:2.61827px;stroke-linecap:round;stroke-linejoin:round;stroke-miterlimit:1.5"
       id="path126" />
    <path
       d="m 112.93259,200.52254 c 0.40835,-0.97392 0.80228,-1.94605 1.18202,-2.91656 10.63539,-27.18091 10.14379,-53.08633 3.71849,-81.46752 -0.32421,40.71111 -9.31704,60.96893 -26.471897,83.39766"
       style="clip-rule:evenodd;fill:#9d6545;fill-rule:evenodd;stroke-width:0.00330728;stroke-linecap:round;stroke-linejoin:round;stroke-miterlimit:1.5"
       id="path128" />
  </g>
</svg>
