<?xml version="1.0" encoding="UTF-8" standalone="no"?>
<svg
   xmlns:dc="http://purl.org/dc/elements/1.1/"
   xmlns:cc="http://creativecommons.org/ns#"
   xmlns:rdf="http://www.w3.org/1999/02/22-rdf-syntax-ns#"
   xmlns:svg="http://www.w3.org/2000/svg"
   xmlns="http://www.w3.org/2000/svg"
   xmlns:sodipodi="http://sodipodi.sourceforge.net/DTD/sodipodi-0.dtd"
   xmlns:inkscape="http://www.inkscape.org/namespaces/inkscape"
   width="48"
   height="48"
   viewBox="0 0 48 48"
   fill="none"
   version="1.1"
   id="svg4"
   sodipodi:docname="wasp_logo.svg"
   inkscape:version="1.0.1 (3bc2e813f5, 2020-09-07)">
  <metadata
     id="metadata10">
    <rdf:RDF>
      <cc:Work
         rdf:about="">
        <dc:format>image/svg+xml</dc:format>
        <dc:type
           rdf:resource="http://purl.org/dc/dcmitype/StillImage" />
      </cc:Work>
    </rdf:RDF>
  </metadata>
  <defs
     id="defs8">
    <rect
       x="1.8363701"
       y="35.022202"
       width="44.387689"
       height="11.333027"
       id="rect837" />
  </defs>
  <sodipodi:namedview
     pagecolor="#ffffff"
     bordercolor="#666666"
     borderopacity="1"
     objecttolerance="10"
     gridtolerance="10"
     guidetolerance="10"
     inkscape:pageopacity="0"
     inkscape:pageshadow="2"
     inkscape:window-width="2880"
     inkscape:window-height="1526"
     id="namedview6"
     showgrid="false"
     inkscape:zoom="12.292161"
     inkscape:cx="56.68249"
     inkscape:cy="44.836293"
     inkscape:window-x="5749"
     inkscape:window-y="799"
     inkscape:window-maximized="1"
     inkscape:current-layer="svg4"
     inkscape:document-rotation="0" />
  <path
     fill-rule="evenodd"
     clip-rule="evenodd"
     d="m 24.687476,9.3377369 c 0.411556,0 0.791096,0.117199 1.110677,0.322201 0.140388,-0.279998 0.29979,-0.554756 0.478791,-0.823209 0.562033,-0.842516 1.155404,-1.368652 1.822509,-1.850451 1.429386,-0.9635086 3.381901,-1.5739351 4.478705,-1.5657175 1.096804,0.00823 1.232922,1.9772745 -0.09537,1.9270185 -2.626217,-0.09935 -4.780532,0.39254 -6.373299,2.557721 0.414563,0.3971011 0.670112,0.9716491 0.670112,1.6225521 0,1.086229 -0.71154,1.959695 -1.686584,2.151114 0.436781,0.192874 0.832911,0.477723 1.269595,0.805649 0.02037,0.01911 0.09304,0.07868 0.20898,0.173858 1.109999,0.911012 6.191388,5.081584 7.495231,8.263431 1.379131,3.300696 -0.876279,6.237375 -1.193726,6.650775 -0.01407,0.01824 -0.02435,0.03153 -0.03027,0.03978 -0.390503,0.523128 -1.328292,0.465111 -1.584035,-0.135148 L 26.23998,18.627051 c -0.205681,0.200248 -0.443573,0.3743 -0.706689,0.51624 -0.365278,0.315313 -0.58755,0.754519 -0.58755,1.110483 0,0.39225 0.138253,0.492568 0.756848,0.941476 l 0.09615,0.06995 c 0.03725,0.02697 0.05782,0.05249 0.06364,0.07655 0.830971,0.59143 1.417841,1.549205 1.546683,2.694034 0.002,0.01746 0.0036,0.03502 0.0049,0.05268 0.153097,2.218736 0.169493,5.588219 -0.578235,8.07337 -0.0035,0.01164 -0.0072,0.02319 -0.01096,0.03473 -0.305028,0.91237 -0.667784,1.684644 -1.102625,2.250267 -0.429893,0.559026 -1.040629,1.049653 -1.823285,1.049653 -0.782558,0 -1.393295,-0.490627 -1.823188,-1.049653 -0.432221,-0.56213 -0.793133,-1.328486 -1.096998,-2.23358 -0.919258,-2.51513 -0.899175,-5.897419 -0.66953,-8.140313 0.08887,-1.382041 0.897914,-2.446052 1.953582,-2.984413 0.509642,-0.361591 0.578623,-0.47588 0.578623,-0.834755 0,-0.406608 -0.521188,-0.914213 -0.998135,-1.248833 -0.02979,-0.02086 -0.0389,-0.04036 -0.02998,-0.0585 -0.136506,-0.09537 -0.264087,-0.200345 -0.381189,-0.31376 l -5.016193,10.844631 c -0.255743,0.600259 -1.193532,0.658276 -1.584035,0.135148 -0.0059,-0.0082 -0.01601,-0.02134 -0.02988,-0.03939 l -3.88e-4,-3.88e-4 c -0.317447,-0.4134 -2.572857,-3.350079 -1.193726,-6.650775 1.350994,-3.297009 6.681918,-7.626207 7.590698,-8.364234 0.03774,-0.03066 0.06791,-0.05511 0.08974,-0.07306 0.319582,-0.261856 0.778969,-0.581243 1.311896,-0.802254 -0.984359,-0.184142 -1.704727,-1.061586 -1.704727,-2.154509 0,-0.656239 0.25972,-1.234765 0.680396,-1.6322541 -1.592087,-2.156934 -3.74388,-2.647173 -6.366217,-2.548019 -1.328195,0.05026 -1.192077,-1.9187913 -0.09527,-1.9270088 1.096804,-0.00823 3.049319,0.6021992 4.478706,1.5657078 0.667008,0.481799 1.260378,1.007935 1.822411,1.850451 0.177255,0.265736 0.335202,0.537778 0.474619,0.814866 0.316865,-0.19986 0.691651,-0.313858 1.09758,-0.313858 z m -2.031974,6.6497081 0.09081,-0.196271 c 0.208495,-0.34859 0.629753,-0.600743 1.086811,-0.600743 0.647993,0 1.223997,0.506829 1.223997,1.077109 v 0.443475 c 0,0.570183 -0.576004,1.077109 -1.223997,1.077109 -0.647992,0 -1.223996,-0.506926 -1.223996,-1.077109 V 16.26754 c 0,-0.09586 0.0162,-0.189964 0.04638,-0.280095 z m 9.611321,7.610296 c -0.576101,-1.419296 -2.088148,-3.108792 -3.600195,-4.595613 l 3.600195,7.839456 c 0.287954,-0.878511 0.504016,-2.095037 0,-3.243843 z M 19.007962,19.002128 c -1.512047,1.486821 -3.024094,3.176317 -3.600195,4.595613 -0.504016,1.148806 -0.287954,2.365332 0,3.243843 z m 5.766831,-7.868659 c 0.144171,0 0.288342,0.19724 0.288342,0.39448 0,0.197144 -0.144171,0.394384 -0.288342,0.394384 h -1.874511 c -0.144268,0 -0.288439,-0.19724 -0.288439,-0.394384 0,-0.19724 0.144171,-0.39448 0.288439,-0.39448 z m 0.556503,17.062796 c 0.04123,-0.679426 0.05394,-1.368264 0.04647,-2.032265 l -1.081087,0.726676 c -0.279901,0.188217 -0.63897,0.188217 -0.918871,0 L 22.300699,26.16662 c -0.01514,0.663904 -0.003,1.352935 0.0456,2.031683 l 1.490996,1.002404 z m -0.276311,2.301397 c -0.06481,0.331224 -0.140872,0.647992 -0.229451,0.944774 -0.2604,0.774894 -0.519538,1.270275 -0.735601,1.551243 -0.0878,0.114289 -0.151932,0.173083 -0.191128,0.202479 -0.0391,-0.0294 -0.103228,-0.08819 -0.191031,-0.202479 -0.217711,-0.283005 -0.479082,-0.783722 -0.741519,-1.568706 -0.0037,-0.01125 -0.0077,-0.02241 -0.01174,-0.03357 -0.09741,-0.264766 -0.1823,-0.546316 -0.255743,-0.840576 L 23.37781,31.0074 c 0.279901,0.188121 0.63897,0.188121 0.918871,0 z m -1.21769,-5.413681 1.435693,-0.965149 c -0.155231,-0.656627 -0.709406,-1.140075 -1.411923,-1.140075 -0.781976,0 -1.340905,0.557959 -1.428999,1.160546 z"
     fill="#000000"
     id="path2"
     style="stroke-width:0.970194" />
  <text
     xml:space="preserve"
     id="text835"
     style="font-style:normal;font-variant:normal;font-weight:normal;font-stretch:normal;font-size:7.55906px;line-height:1.25;font-family:Metropolis;-inkscape-font-specification:'Metropolis, Normal';font-variant-ligatures:normal;font-variant-caps:normal;font-variant-numeric:normal;font-variant-east-asian:normal;white-space:pre;shape-inside:url(#rect837);fill:#000000;fill-opacity:1;"
     transform="translate(9.7441811,0.39477411)"><tspan
       x="1.8359375"
       y="41.97582"><tspan
         style="font-style:normal;font-variant:normal;font-weight:normal;font-stretch:normal;font-size:7.55906px;font-family:Metropolis;-inkscape-font-specification:'Metropolis, Normal';font-variant-ligatures:normal;font-variant-caps:normal;font-variant-numeric:normal;font-variant-east-asian:normal;fill:#000000;fill-opacity:1">WASP</tspan></tspan></text>
</svg>
