<?xml version="1.0" encoding="UTF-8" standalone="no"?>
<svg
   xmlns:dc="http://purl.org/dc/elements/1.1/"
   xmlns:cc="http://creativecommons.org/ns#"
   xmlns:rdf="http://www.w3.org/1999/02/22-rdf-syntax-ns#"
   xmlns:svg="http://www.w3.org/2000/svg"
   xmlns="http://www.w3.org/2000/svg"
   xmlns:sodipodi="http://sodipodi.sourceforge.net/DTD/sodipodi-0.dtd"
   xmlns:inkscape="http://www.inkscape.org/namespaces/inkscape"
   width="48"
   height="48"
   viewBox="0 0 48 48"
   fill="none"
   version="1.1"
   id="svg4"
   sodipodi:docname="bee_logo.svg"
   inkscape:version="1.0.1 (3bc2e813f5, 2020-09-07)">
  <metadata
     id="metadata10">
    <rdf:RDF>
      <cc:Work
         rdf:about="">
        <dc:format>image/svg+xml</dc:format>
        <dc:type
           rdf:resource="http://purl.org/dc/dcmitype/StillImage" />
      </cc:Work>
    </rdf:RDF>
  </metadata>
  <defs
     id="defs8">
    <rect
       x="3.5678048"
       y="35.232073"
       width="60.990616"
       height="34.958743"
       id="rect837" />
  </defs>
  <sodipodi:namedview
     pagecolor="#ffffff"
     bordercolor="#666666"
     borderopacity="1"
     objecttolerance="10"
     gridtolerance="10"
     guidetolerance="10"
     inkscape:pageopacity="0"
     inkscape:pageshadow="2"
     inkscape:window-width="2880"
     inkscape:window-height="1526"
     id="namedview6"
     showgrid="false"
     showguides="true"
     inkscape:guide-bbox="true"
     inkscape:zoom="17.383741"
     inkscape:cx="30.697197"
     inkscape:cy="39.35505"
     inkscape:window-x="5749"
     inkscape:window-y="799"
     inkscape:window-maximized="1"
     inkscape:current-layer="svg4"
     inkscape:document-rotation="0"
     inkscape:snap-others="true"
     inkscape:snap-object-midpoints="true" />
  <path
     fill-rule="evenodd"
     clip-rule="evenodd"
     d="m 28.369168,10.75349 c 0,-1.0131023 -0.936821,-1.8296293 -1.9107,-2.4048793 0.173316,-0.211287 0.358719,-0.40718 0.556323,-0.579812 0.610826,-0.510144 1.354377,-0.765215 2.124495,-0.969318 0.05314,0 0.106271,-0.02555 0.159291,-0.05108 0.318698,-0.178562 0.424968,-0.586653 0.239109,-0.892808 -0.185973,-0.3061543 -0.610826,-0.4080913 -0.929524,-0.2295296 -0.424853,0.2039886 -0.796685,0.4591746 -1.168517,0.7397876 -0.371719,0.280612 -0.690416,0.612194 -0.955978,0.994859 -0.157923,0.252905 -0.30433,0.505811 -0.423827,0.766013 -0.285744,-0.15017 -0.563963,-0.278789 -0.811623,-0.384602 -0.599766,-0.256327 -1.27992,-0.244012 -1.872389,0.0277 -0.280498,0.128619 -0.60102,0.287226 -0.927243,0.472173 -0.121549,-0.308316 -0.27742,-0.609568 -0.479471,-0.881287 -0.265561,-0.382664 -0.584258,-0.714246 -0.956091,-0.994859 -0.371719,-0.280613 -0.770118,-0.510257 -1.168405,-0.7397876 -0.02656,-0.012768 -0.05313,-0.019157 -0.0797,-0.025546 -0.02657,-0.00643 -0.05313,-0.012768 -0.07971,-0.025546 -0.371717,-0.102048 -0.716982,0.102048 -0.823253,0.4591746 -0.106156,0.357236 0.106271,0.688818 0.478103,0.79087 0.770118,0.204102 1.513668,0.459175 2.124496,0.969317 0.223145,0.194868 0.430782,0.41961 0.622913,0.662595 -0.938075,0.587222 -1.817999,1.381856 -1.817999,2.2965563 0,1.080035 0.599766,2.043083 1.530658,2.66953 -0.436484,0.239336 -0.828157,0.540929 -1.164527,0.89429 -0.02428,-0.0067 -0.04891,-0.01277 -0.074,-0.0179 -4.62082,-0.994965 -11.3925928,-2.168387 -15.4026457,-2.780582 -1.4340457,-0.204103 -2.2838439,0.612195 -2.4697372,1.505003 -0.2124496,1.020401 0.2921181,2.321414 1.3543771,3.520377 1.1419163,1.250045 2.7352878,2.193936 4.4880191,2.602028 0.298287,0.07549 0.6082042,0.137514 0.9270155,0.187455 -0.056672,0.206042 -0.081988,0.417898 -0.077197,0.628958 0.026573,1.862125 1.9916582,3.137711 3.7178662,3.137711 2.870555,0 5.196303,-1.717315 6.691044,-3.213766 0.181184,0.381867 0.410258,0.733858 0.680837,1.049477 -0.751304,1.148906 -1.1578,2.655961 -1.1578,4.358112 0,3.647969 1.912069,8.749974 5.019224,8.749974 3.10704,0 5.019107,-5.102005 4.965972,-8.749974 0,-1.688468 -0.397942,-3.177507 -1.138073,-4.319571 0.270692,-0.308892 0.501136,-0.653472 0.685169,-1.027699 1.496338,1.490408 3.802018,3.153447 6.640531,3.153447 1.72621,0 3.691299,-1.301013 3.717867,-3.137711 0,-0.20992 -0.02885,-0.420749 -0.08803,-0.625764 0.329644,-0.05051 0.651876,-0.113568 0.964416,-0.190534 1.752776,-0.408207 3.346148,-1.351983 4.487984,-2.602028 1.062248,-1.173421 1.566805,-2.499977 1.354377,-3.520377 -0.185859,-0.91835 -1.03568,-1.734648 -2.469645,-1.505118 -4.01011,0.612309 -10.755315,1.785731 -15.402705,2.780589 -0.01053,0.0023 -0.02098,0.0046 -0.03135,0.0071 -0.336029,-0.350853 -0.726789,-0.650166 -1.16179,-0.887677 0.931347,-0.630781 1.527008,-1.597819 1.511844,-2.665311 z m -1.865661,11.438205 c -0.649823,0.289849 -1.383339,0.449483 -2.170902,0.449483 -0.809229,0 -1.561332,-0.168528 -2.224153,-0.473542 -0.424968,0.722341 -0.669892,1.67296 -0.715729,2.751171 l 0.09841,0.05644 c 0.298059,0.171036 0.589048,0.337967 0.902843,0.472058 0.265447,0.149942 0.54013,0.273431 0.823938,0.37571 0.159061,0.05736 0.151194,0.284262 -0.01653,0.310487 -0.32531,0.05074 -0.654384,0.07902 -0.993263,0.07902 -0.261685,0.01197 -0.52337,0.0071 -0.782205,-0.0015 0.07526,0.85461 0.249484,1.693143 0.485856,2.456305 0.186658,0.107296 0.371605,0.208892 0.561911,0.300225 0.25473,0.137742 0.519037,0.257011 0.792923,0.358036 0.155415,0.05724 0.148688,0.274912 -0.01505,0.303303 -0.310259,0.05371 -0.628729,0.08837 -0.937277,0.103987 l -0.01244,5.7e-4 c 0.589734,1.378664 1.362815,2.320959 2.004201,2.320959 0.638648,0 1.407855,-0.934313 1.996673,-2.303398 -0.296005,-0.02987 -0.583689,-0.06818 -0.863046,-0.119384 -0.163512,-0.02998 -0.169782,-0.248572 -0.01392,-0.304673 0.273657,-0.09841 0.537736,-0.211514 0.792352,-0.333861 0.153933,-0.07388 0.30433,-0.154503 0.455185,-0.239451 0.249826,-0.785283 0.434432,-1.654032 0.512651,-2.540113 -0.232723,0.0069 -0.467497,0.0096 -0.702274,-10e-4 -0.335002,0 -0.670118,-0.02759 -0.993719,-0.0773 -0.167729,-0.02576 -0.17343,-0.249371 -0.01334,-0.303989 0.296006,-0.101136 0.576619,-0.220636 0.847768,-0.358492 0.288024,-0.14652 0.576163,-0.303417 0.871144,-0.464077 l 0.02645,-0.01437 c -0.0382,-1.096805 -0.287111,-2.058254 -0.718463,-2.802603 z M 24.80683,9.5306967 c -0.305357,-0.111629 -0.641043,-0.105017 -0.942979,0.01505 -0.588706,0.234205 -1.523018,0.6841433 -1.523018,1.1822013 0,0.727358 0.902956,1.428606 1.991772,1.428606 1.062246,0 1.991657,-0.572402 1.991657,-1.428606 0.01551,-0.549368 -0.923481,-0.9801513 -1.517432,-1.1972533 z m -0.474225,5.2788553 c -1.726211,0 -2.921182,1.199076 -2.921182,2.908182 0,1.709221 1.194971,2.908183 2.921182,2.908183 1.726094,0 2.92118,-1.198962 2.92118,-2.908183 0,-1.709106 -1.195086,-2.908182 -2.92118,-2.908182 z m 15.190164,2.193936 c -3.186743,0.739787 -7.940291,-0.204102 -10.171056,-0.714247 4.355261,-0.892922 10.489753,-1.964291 14.313889,-2.551058 -0.212541,0.816412 -1.540236,2.65311 -4.142833,3.265305 z m -8.23242,2.117312 c 1.115383,0.918349 2.575916,1.760188 4.195855,1.760188 0.610827,0 1.03568,-0.306153 1.248222,-0.586766 0.159291,-0.203991 0.159291,-0.357124 0.159291,-0.408093 -0.02657,-0.02555 -0.212427,-0.153021 -0.716983,-0.178561 C 34.662951,19.682018 33.06958,19.477924 31.290349,19.1208 Z M 4.9199475,13.738183 c 0.1858934,0.816298 1.513703,2.652996 4.1427892,3.265191 C 12.222913,17.743161 17.003027,16.799386 19.233793,16.289128 14.878532,15.396319 8.7440387,14.324836 4.9199475,13.738183 Z m 7.4889375,5.96927 c 1.513669,-0.05097 3.10704,-0.229529 4.886271,-0.586653 -1.115269,0.943777 -2.575916,1.760188 -4.195855,1.760188 -0.584259,0 -1.03568,-0.306153 -1.248107,-0.586766 -0.159405,-0.229645 -0.159405,-0.382665 -0.159405,-0.408207 0.02657,-0.05097 0.212541,-0.15302 0.717096,-0.178562 z"
     fill="#000000"
     id="path2"
     style="stroke-width:1.14024" />
  <text
     xml:space="preserve"
     id="text835"
     style="font-style:normal;font-variant:normal;font-weight:900;font-stretch:normal;font-size:7.55906px;line-height:1.25;font-family:Metropolis;-inkscape-font-specification:'Metropolis, Heavy';font-variant-ligatures:normal;font-variant-caps:normal;font-variant-numeric:normal;font-variant-east-asian:normal;letter-spacing:0.75px;white-space:pre;shape-inside:url(#rect837);fill:#000000;fill-opacity:1;"
     transform="translate(11.953473,-1.2737702)"><tspan
       x="3.5683594"
       y="42.186757"><tspan
         style="font-style:normal;font-variant:normal;font-weight:900;font-stretch:normal;font-size:7.55906px;font-family:Metropolis;-inkscape-font-specification:'Metropolis, Heavy';font-variant-ligatures:normal;font-variant-caps:normal;font-variant-numeric:normal;font-variant-east-asian:normal;fill:#000000;fill-opacity:1">BEE</tspan></tspan></text>
</svg>
